<?xml version="1.0" encoding="utf-8" standalone="no"?>
<!DOCTYPE svg PUBLIC "-//W3C//DTD SVG 1.1//EN"
  "http://www.w3.org/Graphics/SVG/1.1/DTD/svg11.dtd">
<svg xmlns:xlink="http://www.w3.org/1999/xlink" width="432pt" height="288pt" viewBox="0 0 432 288" xmlns="http://www.w3.org/2000/svg" version="1.1">
 <metadata>
  <rdf:RDF xmlns:dc="http://purl.org/dc/elements/1.1/" xmlns:cc="http://creativecommons.org/ns#" xmlns:rdf="http://www.w3.org/1999/02/22-rdf-syntax-ns#">
   <cc:Work>
    <dc:type rdf:resource="http://purl.org/dc/dcmitype/StillImage"/>
    <dc:date>2022-08-25T18:32:02.998325</dc:date>
    <dc:format>image/svg+xml</dc:format>
    <dc:creator>
     <cc:Agent>
      <dc:title>Matplotlib v3.5.2, https://matplotlib.org/</dc:title>
     </cc:Agent>
    </dc:creator>
   </cc:Work>
  </rdf:RDF>
 </metadata>
 <defs>
  <style type="text/css">*{stroke-linejoin: round; stroke-linecap: butt}</style>
 </defs>
 <g id="figure_1">
  <g id="patch_1">
   <path d="M 0 288 
L 432 288 
L 432 0 
L 0 0 
z
"/>
  </g>
  <g id="axes_1">
   <g id="patch_2">
    <path d="M 54 252 
L 388.8 252 
L 388.8 34.56 
L 54 34.56 
z
"/>
   </g>
   <g id="matplotlib.axis_1">
    <g id="xtick_1">
     <g id="line2d_1">
      <defs>
       <path id="m7c6a3b7325" d="M 0 0 
L 0 3.5 
" style="stroke: #ffffff; stroke-width: 0.8"/>
      </defs>
      <g>
       <use xlink:href="#m7c6a3b7325" x="54" y="252" style="fill: #ffffff; stroke: #ffffff; stroke-width: 0.8"/>
      </g>
     </g>
     <g id="text_1">
      <!-- −8 -->
      <g style="fill: #ffffff" transform="translate(46.628906 266.598437)scale(0.1 -0.1)">
       <defs>
        <path id="DejaVuSans-2212" d="M 678 2272 
L 4684 2272 
L 4684 1741 
L 678 1741 
L 678 2272 
z
" transform="scale(0.015625)"/>
        <path id="DejaVuSans-38" d="M 2034 2216 
Q 1584 2216 1326 1975 
Q 1069 1734 1069 1313 
Q 1069 891 1326 650 
Q 1584 409 2034 409 
Q 2484 409 2743 651 
Q 3003 894 3003 1313 
Q 3003 1734 2745 1975 
Q 2488 2216 2034 2216 
z
M 1403 2484 
Q 997 2584 770 2862 
Q 544 3141 544 3541 
Q 544 4100 942 4425 
Q 1341 4750 2034 4750 
Q 2731 4750 3128 4425 
Q 3525 4100 3525 3541 
Q 3525 3141 3298 2862 
Q 3072 2584 2669 2484 
Q 3125 2378 3379 2068 
Q 3634 1759 3634 1313 
Q 3634 634 3220 271 
Q 2806 -91 2034 -91 
Q 1263 -91 848 271 
Q 434 634 434 1313 
Q 434 1759 690 2068 
Q 947 2378 1403 2484 
z
M 1172 3481 
Q 1172 3119 1398 2916 
Q 1625 2713 2034 2713 
Q 2441 2713 2670 2916 
Q 2900 3119 2900 3481 
Q 2900 3844 2670 4047 
Q 2441 4250 2034 4250 
Q 1625 4250 1398 4047 
Q 1172 3844 1172 3481 
z
" transform="scale(0.015625)"/>
       </defs>
       <use xlink:href="#DejaVuSans-2212"/>
       <use xlink:href="#DejaVuSans-38" x="83.789062"/>
      </g>
     </g>
    </g>
    <g id="xtick_2">
     <g id="line2d_2">
      <g>
       <use xlink:href="#m7c6a3b7325" x="124.484211" y="252" style="fill: #ffffff; stroke: #ffffff; stroke-width: 0.8"/>
      </g>
     </g>
     <g id="text_2">
      <!-- −6 -->
      <g style="fill: #ffffff" transform="translate(117.113117 266.598437)scale(0.1 -0.1)">
       <defs>
        <path id="DejaVuSans-36" d="M 2113 2584 
Q 1688 2584 1439 2293 
Q 1191 2003 1191 1497 
Q 1191 994 1439 701 
Q 1688 409 2113 409 
Q 2538 409 2786 701 
Q 3034 994 3034 1497 
Q 3034 2003 2786 2293 
Q 2538 2584 2113 2584 
z
M 3366 4563 
L 3366 3988 
Q 3128 4100 2886 4159 
Q 2644 4219 2406 4219 
Q 1781 4219 1451 3797 
Q 1122 3375 1075 2522 
Q 1259 2794 1537 2939 
Q 1816 3084 2150 3084 
Q 2853 3084 3261 2657 
Q 3669 2231 3669 1497 
Q 3669 778 3244 343 
Q 2819 -91 2113 -91 
Q 1303 -91 875 529 
Q 447 1150 447 2328 
Q 447 3434 972 4092 
Q 1497 4750 2381 4750 
Q 2619 4750 2861 4703 
Q 3103 4656 3366 4563 
z
" transform="scale(0.015625)"/>
       </defs>
       <use xlink:href="#DejaVuSans-2212"/>
       <use xlink:href="#DejaVuSans-36" x="83.789062"/>
      </g>
     </g>
    </g>
    <g id="xtick_3">
     <g id="line2d_3">
      <g>
       <use xlink:href="#m7c6a3b7325" x="194.968421" y="252" style="fill: #ffffff; stroke: #ffffff; stroke-width: 0.8"/>
      </g>
     </g>
     <g id="text_3">
      <!-- −4 -->
      <g style="fill: #ffffff" transform="translate(187.597327 266.598437)scale(0.1 -0.1)">
       <defs>
        <path id="DejaVuSans-34" d="M 2419 4116 
L 825 1625 
L 2419 1625 
L 2419 4116 
z
M 2253 4666 
L 3047 4666 
L 3047 1625 
L 3713 1625 
L 3713 1100 
L 3047 1100 
L 3047 0 
L 2419 0 
L 2419 1100 
L 313 1100 
L 313 1709 
L 2253 4666 
z
" transform="scale(0.015625)"/>
       </defs>
       <use xlink:href="#DejaVuSans-2212"/>
       <use xlink:href="#DejaVuSans-34" x="83.789062"/>
      </g>
     </g>
    </g>
    <g id="xtick_4">
     <g id="line2d_4">
      <g>
       <use xlink:href="#m7c6a3b7325" x="265.452632" y="252" style="fill: #ffffff; stroke: #ffffff; stroke-width: 0.8"/>
      </g>
     </g>
     <g id="text_4">
      <!-- −2 -->
      <g style="fill: #ffffff" transform="translate(258.081538 266.598437)scale(0.1 -0.1)">
       <defs>
        <path id="DejaVuSans-32" d="M 1228 531 
L 3431 531 
L 3431 0 
L 469 0 
L 469 531 
Q 828 903 1448 1529 
Q 2069 2156 2228 2338 
Q 2531 2678 2651 2914 
Q 2772 3150 2772 3378 
Q 2772 3750 2511 3984 
Q 2250 4219 1831 4219 
Q 1534 4219 1204 4116 
Q 875 4013 500 3803 
L 500 4441 
Q 881 4594 1212 4672 
Q 1544 4750 1819 4750 
Q 2544 4750 2975 4387 
Q 3406 4025 3406 3419 
Q 3406 3131 3298 2873 
Q 3191 2616 2906 2266 
Q 2828 2175 2409 1742 
Q 1991 1309 1228 531 
z
" transform="scale(0.015625)"/>
       </defs>
       <use xlink:href="#DejaVuSans-2212"/>
       <use xlink:href="#DejaVuSans-32" x="83.789062"/>
      </g>
     </g>
    </g>
    <g id="xtick_5">
     <g id="line2d_5">
      <g>
       <use xlink:href="#m7c6a3b7325" x="335.936842" y="252" style="fill: #ffffff; stroke: #ffffff; stroke-width: 0.8"/>
      </g>
     </g>
     <g id="text_5">
      <!-- 0 -->
      <g style="fill: #ffffff" transform="translate(332.755592 266.598437)scale(0.1 -0.1)">
       <defs>
        <path id="DejaVuSans-30" d="M 2034 4250 
Q 1547 4250 1301 3770 
Q 1056 3291 1056 2328 
Q 1056 1369 1301 889 
Q 1547 409 2034 409 
Q 2525 409 2770 889 
Q 3016 1369 3016 2328 
Q 3016 3291 2770 3770 
Q 2525 4250 2034 4250 
z
M 2034 4750 
Q 2819 4750 3233 4129 
Q 3647 3509 3647 2328 
Q 3647 1150 3233 529 
Q 2819 -91 2034 -91 
Q 1250 -91 836 529 
Q 422 1150 422 2328 
Q 422 3509 836 4129 
Q 1250 4750 2034 4750 
z
" transform="scale(0.015625)"/>
       </defs>
       <use xlink:href="#DejaVuSans-30"/>
      </g>
     </g>
    </g>
   </g>
   <g id="matplotlib.axis_2">
    <g id="ytick_1">
     <g id="line2d_6">
      <defs>
       <path id="mc018829b7c" d="M 0 0 
L -3.5 0 
" style="stroke: #ffffff; stroke-width: 0.8"/>
      </defs>
      <g>
       <use xlink:href="#mc018829b7c" x="54" y="252" style="fill: #ffffff; stroke: #ffffff; stroke-width: 0.8"/>
      </g>
     </g>
     <g id="text_6">
      <!-- −1 -->
      <g style="fill: #ffffff" transform="translate(32.257812 255.799219)scale(0.1 -0.1)">
       <defs>
        <path id="DejaVuSans-31" d="M 794 531 
L 1825 531 
L 1825 4091 
L 703 3866 
L 703 4441 
L 1819 4666 
L 2450 4666 
L 2450 531 
L 3481 531 
L 3481 0 
L 794 0 
L 794 531 
z
" transform="scale(0.015625)"/>
       </defs>
       <use xlink:href="#DejaVuSans-2212"/>
       <use xlink:href="#DejaVuSans-31" x="83.789062"/>
      </g>
     </g>
    </g>
    <g id="ytick_2">
     <g id="line2d_7">
      <g>
       <use xlink:href="#mc018829b7c" x="54" y="208.512" style="fill: #ffffff; stroke: #ffffff; stroke-width: 0.8"/>
      </g>
     </g>
     <g id="text_7">
      <!-- 0 -->
      <g style="fill: #ffffff" transform="translate(40.6375 212.311219)scale(0.1 -0.1)">
       <use xlink:href="#DejaVuSans-30"/>
      </g>
     </g>
    </g>
    <g id="ytick_3">
     <g id="line2d_8">
      <g>
       <use xlink:href="#mc018829b7c" x="54" y="165.024" style="fill: #ffffff; stroke: #ffffff; stroke-width: 0.8"/>
      </g>
     </g>
     <g id="text_8">
      <!-- 1 -->
      <g style="fill: #ffffff" transform="translate(40.6375 168.823219)scale(0.1 -0.1)">
       <use xlink:href="#DejaVuSans-31"/>
      </g>
     </g>
    </g>
    <g id="ytick_4">
     <g id="line2d_9">
      <g>
       <use xlink:href="#mc018829b7c" x="54" y="121.536" style="fill: #ffffff; stroke: #ffffff; stroke-width: 0.8"/>
      </g>
     </g>
     <g id="text_9">
      <!-- 2 -->
      <g style="fill: #ffffff" transform="translate(40.6375 125.335219)scale(0.1 -0.1)">
       <use xlink:href="#DejaVuSans-32"/>
      </g>
     </g>
    </g>
    <g id="ytick_5">
     <g id="line2d_10">
      <g>
       <use xlink:href="#mc018829b7c" x="54" y="78.048" style="fill: #ffffff; stroke: #ffffff; stroke-width: 0.8"/>
      </g>
     </g>
     <g id="text_10">
      <!-- 3 -->
      <g style="fill: #ffffff" transform="translate(40.6375 81.847219)scale(0.1 -0.1)">
       <defs>
        <path id="DejaVuSans-33" d="M 2597 2516 
Q 3050 2419 3304 2112 
Q 3559 1806 3559 1356 
Q 3559 666 3084 287 
Q 2609 -91 1734 -91 
Q 1441 -91 1130 -33 
Q 819 25 488 141 
L 488 750 
Q 750 597 1062 519 
Q 1375 441 1716 441 
Q 2309 441 2620 675 
Q 2931 909 2931 1356 
Q 2931 1769 2642 2001 
Q 2353 2234 1838 2234 
L 1294 2234 
L 1294 2753 
L 1863 2753 
Q 2328 2753 2575 2939 
Q 2822 3125 2822 3475 
Q 2822 3834 2567 4026 
Q 2313 4219 1838 4219 
Q 1578 4219 1281 4162 
Q 984 4106 628 3988 
L 628 4550 
Q 988 4650 1302 4700 
Q 1616 4750 1894 4750 
Q 2613 4750 3031 4423 
Q 3450 4097 3450 3541 
Q 3450 3153 3228 2886 
Q 3006 2619 2597 2516 
z
" transform="scale(0.015625)"/>
       </defs>
       <use xlink:href="#DejaVuSans-33"/>
      </g>
     </g>
    </g>
    <g id="ytick_6">
     <g id="line2d_11">
      <g>
       <use xlink:href="#mc018829b7c" x="54" y="34.56" style="fill: #ffffff; stroke: #ffffff; stroke-width: 0.8"/>
      </g>
     </g>
     <g id="text_11">
      <!-- 4 -->
      <g style="fill: #ffffff" transform="translate(40.6375 38.359219)scale(0.1 -0.1)">
       <use xlink:href="#DejaVuSans-34"/>
      </g>
     </g>
    </g>
   </g>
   <g id="line2d_12">
    <path d="M 318.315789 121.536 
L 319.429651 123.281173 
L 322.423962 127.693466 
L 325.200159 131.413429 
L 327.618542 134.307991 
L 329.809685 136.61068 
L 331.764177 138.380207 
L 333.68465 139.832271 
L 335.436432 140.884246 
L 336.816693 141.509604 
L 338.428082 141.983623 
L 339.339355 142.112347 
L 340.326387 142.11974 
L 341.379562 141.951442 
L 342.462447 141.543959 
L 343.501983 140.857718 
L 344.411582 139.920987 
L 345.142327 138.822915 
L 345.697108 137.656567 
L 346.397791 135.329089 
L 346.738829 133.137729 
L 346.86993 130.151843 
L 346.741649 127.475591 
L 346.34588 124.283137 
L 345.644985 120.751042 
L 344.633325 117.014988 
L 343.512908 113.695983 
L 342.122501 110.235643 
L 340.464854 106.714855 
L 338.544909 103.202764 
L 336.587464 100.08337 
L 334.383631 97.006594 
L 332.15917 94.282505 
L 329.920451 91.868052 
L 327.446173 89.530137 
L 324.963226 87.492289 
L 322.474146 85.728416 
L 319.754055 84.090658 
L 317.030968 82.730788 
L 314.306648 81.629672 
L 311.58268 80.772958 
L 308.860756 80.148036 
L 306.142602 79.744467 
L 303.430053 79.553555 
L 300.5002 79.579212 
L 297.582507 79.839271 
L 294.680319 80.328076 
L 291.797515 81.041714 
L 288.938675 81.978011 
L 286.109439 83.135226 
L 283.315093 84.513361 
L 280.563741 86.115024 
L 277.863491 87.94326 
L 275.224563 90.003286 
L 272.65929 92.303366 
L 270.369963 94.647804 
L 268.170503 97.216641 
L 266.249456 99.779388 
L 264.437307 102.555662 
L 262.757315 105.562858 
L 261.370186 108.514823 
L 260.262527 111.367636 
L 259.3198 114.426582 
L 258.655487 117.339843 
L 258.243859 120.056538 
L 258.036283 122.95023 
L 258.069763 125.589082 
L 258.295665 127.912645 
L 258.764385 130.358411 
L 259.379007 132.404956 
L 260.032748 133.98531 
L 260.914858 135.586973 
L 261.674678 136.642861 
L 262.620576 137.652218 
L 263.812112 138.538068 
L 264.52224 138.886842 
L 265.316597 139.127766 
L 266.190601 139.207784 
L 267.115354 139.066448 
L 268.029534 138.66027 
L 268.854552 137.999252 
L 269.536134 137.151671 
L 270.062299 136.199719 
L 270.723088 134.204489 
L 271.013483 132.256227 
L 271.066699 130.415815 
L 270.866524 127.865678 
L 270.453486 125.537766 
L 269.696486 122.716264 
L 268.787592 120.155256 
L 267.512533 117.247213 
L 265.848753 114.101292 
L 264.087705 111.258046 
L 261.950976 108.25259 
L 259.753278 105.527197 
L 257.19012 102.701782 
L 254.261149 99.837228 
L 251.300107 97.258824 
L 247.985587 94.687379 
L 244.654856 92.387733 
L 240.981219 90.138969 
L 237.304057 88.155046 
L 233.628658 86.412482 
L 229.62586 84.765156 
L 225.633987 83.363538 
L 221.657267 82.191537 
L 217.369713 81.166524 
L 213.106475 80.382436 
L 208.871784 79.829268 
L 204.668811 79.49789 
L 200.181786 79.382647 
L 196.055288 79.493976 
L 191.972137 79.812308 
L 187.935859 80.335469 
L 183.951387 81.062588 
L 180.024006 81.994536 
L 176.159709 83.132617 
L 172.365192 84.480745 
L 168.648207 86.042834 
L 165.01827 87.825842 
L 161.754851 89.674952 
L 158.585881 91.727585 
L 155.774971 93.796744 
L 153.066615 96.055511 
L 150.47632 98.516062 
L 148.239856 100.940953 
L 146.13555 103.558931 
L 144.374855 106.094716 
L 142.764643 108.81576 
L 141.485355 111.40634 
L 140.381219 114.175656 
L 139.592501 116.761018 
L 139.081491 119.111109 
L 138.763254 121.596883 
L 138.686074 123.780851 
L 138.832681 126.072668 
L 139.163252 127.983531 
L 139.752148 129.952668 
L 140.423862 131.44648 
L 141.36976 132.911591 
L 142.204646 133.824839 
L 143.252394 134.613276 
L 144.555647 135.144265 
L 145.304189 135.242983 
L 146.100308 135.180795 
L 146.911229 134.922476 
L 147.69008 134.45585 
L 148.388578 133.801356 
L 148.975712 133.005525 
L 149.443374 132.120544 
L 150.057292 130.239688 
L 150.340638 128.356223 
L 150.393854 126.541034 
L 150.185221 123.981765 
L 149.747514 121.612974 
L 148.935183 118.711889 
L 147.950166 116.056947 
L 146.55916 113.021484 
L 145.046922 110.245645 
L 143.123055 107.195832 
L 141.115312 104.403033 
L 138.699466 101.417581 
L 135.87023 98.311234 
L 132.990597 95.483209 
L 129.70991 92.589083 
L 126.399971 89.960668 
L 122.700608 87.316163 
L 118.988557 84.930411 
L 114.89871 82.575536 
L 110.809569 80.476805 
L 106.355672 78.455483 
L 101.914814 76.692479 
L 97.491225 75.169964 
L 92.72332 73.775739 
L 87.985019 72.632439 
L 83.279846 71.728324 
L 78.611677 71.053825 
L 73.984388 70.60155 
L 69.401152 70.365845 
L 64.519768 70.349754 
L 60.041907 70.552843 
L 55.620784 70.963805 
L 51.262393 71.583509 
L 46.972019 72.41239 
L 42.756006 73.453928 
L 38.621755 74.711601 
L 34.578428 76.191932 
L 30.935804 77.761849 
L 27.389039 79.53529 
L 23.950467 81.521821 
L 20.906253 83.5401 
L 17.979397 85.758422 
L 15.435621 87.960655 
L 13.020832 90.352495 
L 10.976085 92.679972 
L 9.074774 95.18836 
L 7.527998 97.583244 
L 6.14404 100.148602 
L 5.095235 102.5474 
L 4.234271 105.105364 
L 3.683789 107.436756 
L 3.355685 109.907309 
L 3.303879 112.079969 
L 3.452601 113.892984 
L 3.82511 115.766012 
L 4.298059 117.196767 
L 4.993033 118.624044 
L 5.616466 119.546859 
L 6.403775 120.408791 
L 7.393725 121.145043 
L 8.620503 121.633848 
L 9.322878 121.723868 
L 10.070011 121.668638 
L 10.835117 121.437717 
L 11.579783 121.017623 
L 12.261717 120.419228 
L 12.850261 119.676888 
L 13.331315 118.835395 
L 13.987171 117.004116 
L 14.310693 115.131087 
L 14.39457 113.302852 
L 14.213425 110.701835 
L 13.785234 108.277813 
L 12.967264 105.294537 
L 11.961102 102.553488 
L 10.528511 99.40974 
L 8.963761 96.525181 
L 6.966591 93.347513 
L 4.877439 90.429034 
L 2.358686 87.299637 
L -0.594955 84.032384 
L -1 83.612241 
L -1 83.612241 
" clip-path="url(#pebfe7503de)" style="fill: none; stroke: #8dd3c7; stroke-width: 1.5; stroke-linecap: square"/>
   </g>
   <g id="line2d_13">
    <path d="M 360.606316 178.0704 
L 360.501471 171.440567 
L 360.219851 166.821098 
L 359.753845 162.772191 
L 359.12509 159.192694 
L 358.270575 155.666687 
L 357.278298 152.505979 
L 356.035697 149.327441 
L 354.67447 146.463756 
L 353.231377 143.91275 
L 351.747508 141.68486 
L 350.273507 139.80096 
L 348.877074 138.288882 
L 347.199338 136.811595 
L 345.665848 135.79528 
L 344.453414 135.239939 
L 343.045492 134.916823 
L 342.270553 134.915083 
L 341.474751 135.074684 
L 340.706826 135.421284 
L 340.024398 135.937051 
L 339.460179 136.561104 
L 338.661103 137.911841 
L 338.167833 139.219091 
L 337.743596 140.992531 
L 337.475354 143.040381 
L 337.355654 145.624873 
L 337.429261 149.110436 
L 337.806767 159.207045 
L 337.604685 161.643678 
L 337.233685 163.571501 
L 336.693814 165.200953 
L 336.045096 166.481239 
L 335.263676 167.54813 
L 334.356036 168.415542 
L 333.327922 169.094172 
L 332.184298 169.592197 
L 330.835406 169.932621 
L 329.362674 170.078871 
L 327.658577 170.025424 
L 325.699856 169.735012 
L 323.460679 169.166536 
L 320.911652 168.273945 
L 318.167984 167.075851 
L 315.060758 165.474536 
L 311.53979 163.399723 
L 307.537485 160.762176 
L 303.164997 157.602338 
L 298.107966 153.660151 
L 291.573023 148.24459 
L 279.756345 138.344982 
L 276.582441 135.968797 
L 273.865979 134.206229 
L 271.929073 133.190349 
L 270.440094 132.604131 
L 268.741777 132.215348 
L 267.811033 132.164032 
L 266.846457 132.259706 
L 265.888576 132.532811 
L 264.989903 132.975084 
L 264.186735 133.541732 
L 262.878901 134.842893 
L 261.876263 136.170147 
L 260.390808 138.628524 
L 258.551523 142.267164 
L 253.931283 151.702321 
L 251.972879 155.109171 
L 250.073329 157.977204 
L 248.191401 160.420795 
L 246.305596 162.512568 
L 244.403227 164.303404 
L 242.476189 165.829354 
L 240.519547 167.117425 
L 238.374712 168.262334 
L 236.187235 169.175625 
L 233.953943 169.872912 
L 231.508493 170.39442 
L 229.004894 170.694052 
L 226.441383 170.781072 
L 223.637521 170.647216 
L 220.758241 170.285222 
L 217.612179 169.654907 
L 214.370962 168.773361 
L 210.828426 167.565656 
L 207.161837 166.072191 
L 203.359919 164.285574 
L 199.406459 162.195106 
L 195.047011 159.64062 
L 190.463775 156.701701 
L 185.609528 153.340514 
L 180.127266 149.284823 
L 173.160254 143.835342 
L 159.853892 133.336469 
L 156.267656 130.841562 
L 153.877888 129.400805 
L 151.827503 128.381011 
L 150.288832 127.794358 
L 148.57959 127.379048 
L 146.708939 127.293376 
L 145.747887 127.435147 
L 144.80798 127.71521 
L 143.921641 128.120518 
L 142.376627 129.179451 
L 141.125533 130.371022 
L 139.639373 132.145332 
L 137.752158 134.832021 
L 129.782156 146.824272 
L 127.484371 149.643164 
L 125.25566 152.026307 
L 123.061839 154.055022 
L 120.883172 155.784974 
L 118.525123 157.367068 
L 116.15932 158.68084 
L 113.778364 159.754124 
L 111.377319 160.608228 
L 108.763765 161.301862 
L 106.11814 161.776751 
L 103.243441 162.056814 
L 100.323633 162.113348 
L 97.35519 161.955487 
L 94.131243 161.558441 
L 90.843507 160.932214 
L 87.275596 160.020271 
L 83.623809 158.855662 
L 79.881097 157.438823 
L 76.038651 155.767144 
L 71.850126 153.712771 
L 67.522748 151.355722 
L 62.781628 148.522478 
L 57.831169 145.30915 
L 52.62591 141.679642 
L 46.795456 137.351716 
L 39.468623 131.61217 
L 24.413195 119.695588 
L 20.676827 117.099354 
L 18.203889 115.611195 
L 16.098173 114.562264 
L 14.530604 113.957781 
L 12.804446 113.518117 
L 10.930271 113.38113 
L 9.966047 113.478108 
L 9.015567 113.701202 
L 8.106673 114.043018 
L 6.485184 114.984533 
L 5.139288 116.090868 
L 3.515332 117.782551 
L 1.431819 120.384438 
L -1 123.720668 
L -1 123.720668 
" clip-path="url(#pebfe7503de)" style="fill: none; stroke: #feffb3; stroke-width: 1.5; stroke-linecap: square"/>
   </g>
   <g id="line2d_14">
    <path d="M 364.130526 243.3024 
L 358.484565 243.199333 
L 352.128123 242.849864 
L 345.782429 242.273691 
L 339.459093 241.491212 
L 332.468998 240.401402 
L 325.523857 239.099502 
L 317.942611 237.442349 
L 310.428677 235.566711 
L 302.988152 233.487202 
L 294.962961 231.001732 
L 287.04265 228.307564 
L 279.235114 225.426527 
L 270.907405 222.121265 
L 262.094411 218.375252 
L 252.830672 214.181748 
L 243.146846 209.542648 
L 233.067251 204.465076 
L 222.03753 198.649226 
L 210.671951 192.403349 
L 198.43131 185.420437 
L 185.359309 177.700317 
L 171.496122 169.246032 
L 157.39646 160.392528 
L 142.052048 150.491615 
L 126.024291 139.881848 
L 108.859623 128.245764 
L 90.617252 115.602497 
L 71.349688 101.978577 
L 49.736763 86.416396 
L 23.675226 67.332557 
L -1 49.011269 
L -1 49.011269 
" clip-path="url(#pebfe7503de)" style="fill: none; stroke: #bfbbd9; stroke-width: 1.5; stroke-linecap: square"/>
   </g>
   <g id="patch_3">
    <path d="M 54 252 
L 54 34.56 
" style="fill: none; stroke: #ffffff; stroke-width: 0.8; stroke-linejoin: miter; stroke-linecap: square"/>
   </g>
   <g id="patch_4">
    <path d="M 388.8 252 
L 388.8 34.56 
" style="fill: none; stroke: #ffffff; stroke-width: 0.8; stroke-linejoin: miter; stroke-linecap: square"/>
   </g>
   <g id="patch_5">
    <path d="M 54 252 
L 388.8 252 
" style="fill: none; stroke: #ffffff; stroke-width: 0.8; stroke-linejoin: miter; stroke-linecap: square"/>
   </g>
   <g id="patch_6">
    <path d="M 54 34.56 
L 388.8 34.56 
" style="fill: none; stroke: #ffffff; stroke-width: 0.8; stroke-linejoin: miter; stroke-linecap: square"/>
   </g>
  </g>
 </g>
 <defs>
  <clipPath id="pebfe7503de">
   <rect x="54" y="34.56" width="334.8" height="217.44"/>
  </clipPath>
 </defs>
</svg>
