<?xml version="1.0" encoding="utf-8" standalone="no"?>
<!DOCTYPE svg PUBLIC "-//W3C//DTD SVG 1.1//EN"
  "http://www.w3.org/Graphics/SVG/1.1/DTD/svg11.dtd">
<svg xmlns:xlink="http://www.w3.org/1999/xlink" width="432pt" height="288pt" viewBox="0 0 432 288" xmlns="http://www.w3.org/2000/svg" version="1.1">
 <metadata>
  <rdf:RDF xmlns:dc="http://purl.org/dc/elements/1.1/" xmlns:cc="http://creativecommons.org/ns#" xmlns:rdf="http://www.w3.org/1999/02/22-rdf-syntax-ns#">
   <cc:Work>
    <dc:type rdf:resource="http://purl.org/dc/dcmitype/StillImage"/>
    <dc:date>2022-08-25T17:34:59.977670</dc:date>
    <dc:format>image/svg+xml</dc:format>
    <dc:creator>
     <cc:Agent>
      <dc:title>Matplotlib v3.5.2, https://matplotlib.org/</dc:title>
     </cc:Agent>
    </dc:creator>
   </cc:Work>
  </rdf:RDF>
 </metadata>
 <defs>
  <style type="text/css">*{stroke-linejoin: round; stroke-linecap: butt}</style>
 </defs>
 <g id="figure_1">
  <g id="patch_1">
   <path d="M 0 288 
L 432 288 
L 432 0 
L 0 0 
z
"/>
  </g>
  <g id="axes_1">
   <g id="patch_2">
    <path d="M 54 252 
L 388.8 252 
L 388.8 34.56 
L 54 34.56 
z
"/>
   </g>
   <g id="matplotlib.axis_1">
    <g id="xtick_1">
     <g id="line2d_1">
      <defs>
       <path id="me9a6b2d6f4" d="M 0 0 
L 0 3.5 
" style="stroke: #ffffff; stroke-width: 0.8"/>
      </defs>
      <g>
       <use xlink:href="#me9a6b2d6f4" x="90.314024" y="252" style="fill: #ffffff; stroke: #ffffff; stroke-width: 0.8"/>
      </g>
     </g>
     <g id="text_1">
      <!-- −4 -->
      <g style="fill: #ffffff" transform="translate(82.942931 266.598437)scale(0.1 -0.1)">
       <defs>
        <path id="DejaVuSans-2212" d="M 678 2272 
L 4684 2272 
L 4684 1741 
L 678 1741 
L 678 2272 
z
" transform="scale(0.015625)"/>
        <path id="DejaVuSans-34" d="M 2419 4116 
L 825 1625 
L 2419 1625 
L 2419 4116 
z
M 2253 4666 
L 3047 4666 
L 3047 1625 
L 3713 1625 
L 3713 1100 
L 3047 1100 
L 3047 0 
L 2419 0 
L 2419 1100 
L 313 1100 
L 313 1709 
L 2253 4666 
z
" transform="scale(0.015625)"/>
       </defs>
       <use xlink:href="#DejaVuSans-2212"/>
       <use xlink:href="#DejaVuSans-34" x="83.789062"/>
      </g>
     </g>
    </g>
    <g id="xtick_2">
     <g id="line2d_2">
      <g>
       <use xlink:href="#me9a6b2d6f4" x="132.256571" y="252" style="fill: #ffffff; stroke: #ffffff; stroke-width: 0.8"/>
      </g>
     </g>
     <g id="text_2">
      <!-- −2 -->
      <g style="fill: #ffffff" transform="translate(124.885477 266.598437)scale(0.1 -0.1)">
       <defs>
        <path id="DejaVuSans-32" d="M 1228 531 
L 3431 531 
L 3431 0 
L 469 0 
L 469 531 
Q 828 903 1448 1529 
Q 2069 2156 2228 2338 
Q 2531 2678 2651 2914 
Q 2772 3150 2772 3378 
Q 2772 3750 2511 3984 
Q 2250 4219 1831 4219 
Q 1534 4219 1204 4116 
Q 875 4013 500 3803 
L 500 4441 
Q 881 4594 1212 4672 
Q 1544 4750 1819 4750 
Q 2544 4750 2975 4387 
Q 3406 4025 3406 3419 
Q 3406 3131 3298 2873 
Q 3191 2616 2906 2266 
Q 2828 2175 2409 1742 
Q 1991 1309 1228 531 
z
" transform="scale(0.015625)"/>
       </defs>
       <use xlink:href="#DejaVuSans-2212"/>
       <use xlink:href="#DejaVuSans-32" x="83.789062"/>
      </g>
     </g>
    </g>
    <g id="xtick_3">
     <g id="line2d_3">
      <g>
       <use xlink:href="#me9a6b2d6f4" x="174.199117" y="252" style="fill: #ffffff; stroke: #ffffff; stroke-width: 0.8"/>
      </g>
     </g>
     <g id="text_3">
      <!-- 0 -->
      <g style="fill: #ffffff" transform="translate(171.017867 266.598437)scale(0.1 -0.1)">
       <defs>
        <path id="DejaVuSans-30" d="M 2034 4250 
Q 1547 4250 1301 3770 
Q 1056 3291 1056 2328 
Q 1056 1369 1301 889 
Q 1547 409 2034 409 
Q 2525 409 2770 889 
Q 3016 1369 3016 2328 
Q 3016 3291 2770 3770 
Q 2525 4250 2034 4250 
z
M 2034 4750 
Q 2819 4750 3233 4129 
Q 3647 3509 3647 2328 
Q 3647 1150 3233 529 
Q 2819 -91 2034 -91 
Q 1250 -91 836 529 
Q 422 1150 422 2328 
Q 422 3509 836 4129 
Q 1250 4750 2034 4750 
z
" transform="scale(0.015625)"/>
       </defs>
       <use xlink:href="#DejaVuSans-30"/>
      </g>
     </g>
    </g>
    <g id="xtick_4">
     <g id="line2d_4">
      <g>
       <use xlink:href="#me9a6b2d6f4" x="216.141663" y="252" style="fill: #ffffff; stroke: #ffffff; stroke-width: 0.8"/>
      </g>
     </g>
     <g id="text_4">
      <!-- 2 -->
      <g style="fill: #ffffff" transform="translate(212.960413 266.598437)scale(0.1 -0.1)">
       <use xlink:href="#DejaVuSans-32"/>
      </g>
     </g>
    </g>
    <g id="xtick_5">
     <g id="line2d_5">
      <g>
       <use xlink:href="#me9a6b2d6f4" x="258.084209" y="252" style="fill: #ffffff; stroke: #ffffff; stroke-width: 0.8"/>
      </g>
     </g>
     <g id="text_5">
      <!-- 4 -->
      <g style="fill: #ffffff" transform="translate(254.902959 266.598437)scale(0.1 -0.1)">
       <use xlink:href="#DejaVuSans-34"/>
      </g>
     </g>
    </g>
    <g id="xtick_6">
     <g id="line2d_6">
      <g>
       <use xlink:href="#me9a6b2d6f4" x="300.026755" y="252" style="fill: #ffffff; stroke: #ffffff; stroke-width: 0.8"/>
      </g>
     </g>
     <g id="text_6">
      <!-- 6 -->
      <g style="fill: #ffffff" transform="translate(296.845505 266.598437)scale(0.1 -0.1)">
       <defs>
        <path id="DejaVuSans-36" d="M 2113 2584 
Q 1688 2584 1439 2293 
Q 1191 2003 1191 1497 
Q 1191 994 1439 701 
Q 1688 409 2113 409 
Q 2538 409 2786 701 
Q 3034 994 3034 1497 
Q 3034 2003 2786 2293 
Q 2538 2584 2113 2584 
z
M 3366 4563 
L 3366 3988 
Q 3128 4100 2886 4159 
Q 2644 4219 2406 4219 
Q 1781 4219 1451 3797 
Q 1122 3375 1075 2522 
Q 1259 2794 1537 2939 
Q 1816 3084 2150 3084 
Q 2853 3084 3261 2657 
Q 3669 2231 3669 1497 
Q 3669 778 3244 343 
Q 2819 -91 2113 -91 
Q 1303 -91 875 529 
Q 447 1150 447 2328 
Q 447 3434 972 4092 
Q 1497 4750 2381 4750 
Q 2619 4750 2861 4703 
Q 3103 4656 3366 4563 
z
" transform="scale(0.015625)"/>
       </defs>
       <use xlink:href="#DejaVuSans-36"/>
      </g>
     </g>
    </g>
    <g id="xtick_7">
     <g id="line2d_7">
      <g>
       <use xlink:href="#me9a6b2d6f4" x="341.969302" y="252" style="fill: #ffffff; stroke: #ffffff; stroke-width: 0.8"/>
      </g>
     </g>
     <g id="text_7">
      <!-- 8 -->
      <g style="fill: #ffffff" transform="translate(338.788052 266.598437)scale(0.1 -0.1)">
       <defs>
        <path id="DejaVuSans-38" d="M 2034 2216 
Q 1584 2216 1326 1975 
Q 1069 1734 1069 1313 
Q 1069 891 1326 650 
Q 1584 409 2034 409 
Q 2484 409 2743 651 
Q 3003 894 3003 1313 
Q 3003 1734 2745 1975 
Q 2488 2216 2034 2216 
z
M 1403 2484 
Q 997 2584 770 2862 
Q 544 3141 544 3541 
Q 544 4100 942 4425 
Q 1341 4750 2034 4750 
Q 2731 4750 3128 4425 
Q 3525 4100 3525 3541 
Q 3525 3141 3298 2862 
Q 3072 2584 2669 2484 
Q 3125 2378 3379 2068 
Q 3634 1759 3634 1313 
Q 3634 634 3220 271 
Q 2806 -91 2034 -91 
Q 1263 -91 848 271 
Q 434 634 434 1313 
Q 434 1759 690 2068 
Q 947 2378 1403 2484 
z
M 1172 3481 
Q 1172 3119 1398 2916 
Q 1625 2713 2034 2713 
Q 2441 2713 2670 2916 
Q 2900 3119 2900 3481 
Q 2900 3844 2670 4047 
Q 2441 4250 2034 4250 
Q 1625 4250 1398 4047 
Q 1172 3844 1172 3481 
z
" transform="scale(0.015625)"/>
       </defs>
       <use xlink:href="#DejaVuSans-38"/>
      </g>
     </g>
    </g>
    <g id="xtick_8">
     <g id="line2d_8">
      <g>
       <use xlink:href="#me9a6b2d6f4" x="383.911848" y="252" style="fill: #ffffff; stroke: #ffffff; stroke-width: 0.8"/>
      </g>
     </g>
     <g id="text_8">
      <!-- 10 -->
      <g style="fill: #ffffff" transform="translate(377.549348 266.598437)scale(0.1 -0.1)">
       <defs>
        <path id="DejaVuSans-31" d="M 794 531 
L 1825 531 
L 1825 4091 
L 703 3866 
L 703 4441 
L 1819 4666 
L 2450 4666 
L 2450 531 
L 3481 531 
L 3481 0 
L 794 0 
L 794 531 
z
" transform="scale(0.015625)"/>
       </defs>
       <use xlink:href="#DejaVuSans-31"/>
       <use xlink:href="#DejaVuSans-30" x="63.623047"/>
      </g>
     </g>
    </g>
   </g>
   <g id="matplotlib.axis_2">
    <g id="ytick_1">
     <g id="line2d_9">
      <defs>
       <path id="m725e508f45" d="M 0 0 
L -3.5 0 
" style="stroke: #ffffff; stroke-width: 0.8"/>
      </defs>
      <g>
       <use xlink:href="#m725e508f45" x="54" y="232.771435" style="fill: #ffffff; stroke: #ffffff; stroke-width: 0.8"/>
      </g>
     </g>
     <g id="text_9">
      <!-- −2 -->
      <g style="fill: #ffffff" transform="translate(32.257812 236.570654)scale(0.1 -0.1)">
       <use xlink:href="#DejaVuSans-2212"/>
       <use xlink:href="#DejaVuSans-32" x="83.789062"/>
      </g>
     </g>
    </g>
    <g id="ytick_2">
     <g id="line2d_10">
      <g>
       <use xlink:href="#m725e508f45" x="54" y="200.653865" style="fill: #ffffff; stroke: #ffffff; stroke-width: 0.8"/>
      </g>
     </g>
     <g id="text_10">
      <!-- 0 -->
      <g style="fill: #ffffff" transform="translate(40.6375 204.453083)scale(0.1 -0.1)">
       <use xlink:href="#DejaVuSans-30"/>
      </g>
     </g>
    </g>
    <g id="ytick_3">
     <g id="line2d_11">
      <g>
       <use xlink:href="#m725e508f45" x="54" y="168.536294" style="fill: #ffffff; stroke: #ffffff; stroke-width: 0.8"/>
      </g>
     </g>
     <g id="text_11">
      <!-- 2 -->
      <g style="fill: #ffffff" transform="translate(40.6375 172.335513)scale(0.1 -0.1)">
       <use xlink:href="#DejaVuSans-32"/>
      </g>
     </g>
    </g>
    <g id="ytick_4">
     <g id="line2d_12">
      <g>
       <use xlink:href="#m725e508f45" x="54" y="136.418723" style="fill: #ffffff; stroke: #ffffff; stroke-width: 0.8"/>
      </g>
     </g>
     <g id="text_12">
      <!-- 4 -->
      <g style="fill: #ffffff" transform="translate(40.6375 140.217942)scale(0.1 -0.1)">
       <use xlink:href="#DejaVuSans-34"/>
      </g>
     </g>
    </g>
    <g id="ytick_5">
     <g id="line2d_13">
      <g>
       <use xlink:href="#m725e508f45" x="54" y="104.301153" style="fill: #ffffff; stroke: #ffffff; stroke-width: 0.8"/>
      </g>
     </g>
     <g id="text_13">
      <!-- 6 -->
      <g style="fill: #ffffff" transform="translate(40.6375 108.100372)scale(0.1 -0.1)">
       <use xlink:href="#DejaVuSans-36"/>
      </g>
     </g>
    </g>
    <g id="ytick_6">
     <g id="line2d_14">
      <g>
       <use xlink:href="#m725e508f45" x="54" y="72.183582" style="fill: #ffffff; stroke: #ffffff; stroke-width: 0.8"/>
      </g>
     </g>
     <g id="text_14">
      <!-- 8 -->
      <g style="fill: #ffffff" transform="translate(40.6375 75.982801)scale(0.1 -0.1)">
       <use xlink:href="#DejaVuSans-38"/>
      </g>
     </g>
    </g>
    <g id="ytick_7">
     <g id="line2d_15">
      <g>
       <use xlink:href="#m725e508f45" x="54" y="40.066011" style="fill: #ffffff; stroke: #ffffff; stroke-width: 0.8"/>
      </g>
     </g>
     <g id="text_15">
      <!-- 10 -->
      <g style="fill: #ffffff" transform="translate(34.275 43.86523)scale(0.1 -0.1)">
       <use xlink:href="#DejaVuSans-31"/>
       <use xlink:href="#DejaVuSans-30" x="63.623047"/>
      </g>
     </g>
    </g>
   </g>
   <g id="line2d_16">
    <path d="M 195.17039 168.536294 
L 195.280908 168.786169 
L 196.963014 172.372256 
L 199.677116 177.62926 
L 201.637721 180.968203 
L 203.006725 182.921272 
L 203.861515 183.826666 
L 204.272132 184.08168 
L 204.563633 184.129696 
L 204.873379 183.906318 
L 205.018919 183.470322 
L 204.903787 183.081539 
L 204.631789 182.92898 
L 204.355598 183.023406 
L 204.157 183.339122 
L 204.167695 183.701569 
L 204.424384 183.970874 
L 204.862893 183.875164 
L 205.246248 183.506936 
L 205.385078 183.089889 
L 205.286932 182.811591 
L 205.035486 182.713311 
L 204.673313 182.827489 
L 204.348048 183.161672 
L 204.252419 183.461329 
L 204.27402 183.614851 
L 204.438854 183.793425 
L 204.953279 183.778651 
L 205.291965 183.538251 
L 205.317131 183.279865 
L 205.121259 183.144329 
L 204.735597 183.148986 
L 204.410962 183.321136 
L 204.31722 183.461329 
L 204.363147 183.672502 
L 204.781944 183.860711 
L 205.270365 183.78106 
L 205.415276 183.567317 
L 205.299934 183.367546 
L 204.904206 183.214666 
L 204.430675 183.288858 
L 204.290377 183.471286 
L 204.399847 183.735613 
L 204.739162 183.910493 
L 205.086237 183.839192 
L 205.162153 183.613566 
L 204.996899 183.358071 
L 204.760553 183.230404 
L 204.561326 183.19941 
L 204.219704 183.425197 
L 204.279262 183.71827 
L 204.516867 183.862959 
L 204.79956 183.785395 
L 204.904416 183.534236 
L 204.84297 183.336874 
L 204.534692 183.134693 
L 204.153435 183.297048 
L 204.044384 183.631873 
L 204.189715 183.84128 
L 204.43403 183.861996 
L 204.691558 183.677802 
L 204.785928 183.422627 
L 204.700575 183.148825 
L 204.259759 183.03802 
L 203.895278 183.274405 
L 203.895069 183.51352 
L 204.148402 183.600238 
L 204.479119 183.488147 
L 204.652551 183.306041 
L 204.694074 183.147701 
L 204.578103 182.954996 
L 204.102894 182.871329 
L 203.771548 183.045567 
L 203.775742 183.208243 
L 203.988391 183.325151 
L 204.305267 183.322099 
L 204.596558 183.181264 
L 204.683379 182.991449 
L 204.44892 182.744947 
L 204.025091 182.710099 
L 203.852916 182.855431 
L 203.946658 183.053436 
L 204.261017 183.160709 
L 204.636193 183.053597 
L 204.635774 182.718771 
L 204.279682 182.488488 
L 203.964903 182.53008 
L 203.892762 182.702873 
L 204.00391 182.887388 
L 204.226415 183.010238 
L 204.421867 183.037698 
L 204.665343 182.954835 
L 204.761602 182.672843 
L 204.612076 182.433246 
L 204.339869 182.351667 
L 204.130157 182.475641 
L 204.111492 182.702873 
L 204.297507 182.908265 
L 204.539306 182.954835 
L 204.8285 182.747998 
L 204.829968 182.47259 
L 204.600123 182.31425 
L 204.314704 182.398238 
L 204.218236 182.674449 
L 204.299185 182.815284 
L 204.727628 182.869884 
L 204.983897 182.638477 
L 204.932937 182.388442 
L 204.651083 182.306542 
L 204.364825 182.43983 
L 204.298556 182.722786 
L 204.670796 182.877271 
L 205.077219 182.708011 
L 205.128599 182.485918 
L 204.927484 182.327418 
L 204.615642 182.32244 
L 204.351823 182.472911 
L 204.30254 182.658229 
L 204.582088 182.859125 
L 205.000674 182.79489 
L 205.102385 182.580986 
L 204.972153 182.413975 
L 204.612286 182.334484 
L 204.431933 182.382821 
L 204.288699 182.536504 
L 204.422286 182.800028 
L 204.739791 182.881125 
L 204.988511 182.735793 
L 204.976977 182.531365 
L 204.82095 182.384748 
L 204.46339 182.331112 
L 204.240675 182.605235 
L 204.41222 182.853825 
L 204.718401 182.882892 
L 204.898544 182.675894 
L 204.868136 182.49459 
L 204.63158 182.297549 
L 204.221172 182.397595 
L 204.180488 182.690507 
L 204.357275 182.821868 
L 204.657374 182.755224 
L 204.781944 182.493145 
L 204.737904 182.357448 
L 204.575586 182.228657 
L 204.181536 182.296746 
L 204.044384 182.540197 
L 204.145256 182.697734 
L 204.451856 182.712669 
L 204.69722 182.495554 
L 204.717981 182.348776 
L 204.606414 182.180159 
L 204.223688 182.145633 
L 203.985665 182.326294 
L 204.011879 182.499408 
L 204.220962 182.588213 
L 204.564052 182.491539 
L 204.669747 182.37158 
L 204.676039 182.186101 
L 204.352872 182.015235 
L 204.025929 182.096493 
L 203.949175 182.264307 
L 204.095764 182.413975 
L 204.479957 182.417829 
L 204.637871 182.317141 
L 204.688202 182.128289 
L 204.465697 181.911175 
L 204.140642 181.890138 
L 203.976018 182.078989 
L 204.123236 182.268161 
L 204.422286 182.327579 
L 204.628853 182.25419 
L 204.678136 181.939277 
L 204.406139 181.746893 
L 204.10604 181.803581 
L 204.050466 181.990505 
L 204.169792 182.154947 
L 204.540984 182.232832 
L 204.772507 181.967059 
L 204.64584 181.696308 
L 204.345532 181.624525 
L 204.170421 181.746893 
L 204.14253 181.913423 
L 204.313446 182.130698 
L 204.553357 182.172612 
L 204.833533 181.979103 
L 204.825774 181.710761 
L 204.635774 181.586626 
L 204.389152 181.625007 
L 204.254307 181.766967 
L 204.292265 182.029528 
L 204.701833 182.109019 
L 204.962926 181.88275 
L 204.926436 181.679446 
L 204.717143 181.578437 
L 204.40488 181.660176 
L 204.284295 181.920007 
L 204.612496 182.115282 
L 204.965652 182.010418 
L 205.048069 181.764879 
L 204.881138 181.619547 
L 204.521481 181.614729 
L 204.290167 181.863159 
L 204.530498 182.093763 
L 204.880928 182.081558 
L 205.046601 181.867334 
L 204.926016 181.678483 
L 204.694284 181.595619 
L 204.335256 181.695023 
L 204.357066 182.004316 
L 204.664924 182.143706 
L 204.951811 182.044141 
L 204.997948 181.856575 
L 204.802076 181.629664 
L 204.419141 181.589678 
L 204.239836 181.874239 
L 204.408236 182.113997 
L 204.702253 182.15575 
L 204.896657 181.979264 
L 204.861005 181.71879 
L 204.589637 181.528173 
L 204.191393 181.662745 
L 204.130576 181.942329 
L 204.318898 182.114961 
L 204.586491 182.077383 
L 204.754891 181.889013 
L 204.76265 181.656161 
L 204.655487 181.509866 
L 204.214042 181.482566 
L 203.930091 181.752193 
L 203.979163 181.946183 
L 204.197894 182.016038 
L 204.524207 181.898328 
L 204.679814 181.70514 
L 204.698059 181.542304 
L 204.355388 181.310094 
L 203.898214 181.400987 
L 203.772806 181.617941 
L 203.916459 181.753959 
L 204.275068 181.775157 
L 204.541403 181.665154 
L 204.664295 181.523194 
L 204.498412 181.190617 
L 204.045013 181.050745 
L 203.687243 181.138265 
L 203.636493 181.301904 
L 203.837607 181.487062 
L 204.292055 181.567517 
L 204.674361 181.390549 
L 204.605575 181.079811 
L 204.247176 180.875543 
L 203.942044 180.922114 
L 203.871581 181.089286 
L 204.053402 181.329525 
L 204.341757 181.428929 
L 204.57999 181.398739 
L 204.744825 181.085914 
L 204.556503 180.749643 
L 204.258081 180.633216 
L 204.037464 180.726357 
L 203.987762 180.937209 
L 204.12743 181.181303 
L 204.487927 181.324387 
L 204.826193 181.092979 
L 204.890365 180.71335 
L 204.71903 180.416423 
L 204.429836 180.340625 
L 204.198104 180.494629 
L 204.116945 180.746591 
L 204.231238 181.067767 
L 204.416414 181.190777 
L 204.858069 181.079972 
L 205.216259 180.690707 
L 205.326777 180.264346 
L 205.192981 179.966616 
L 204.933356 179.892746 
L 204.586282 180.034545 
L 204.298136 180.391371 
L 204.235223 180.6997 
L 204.276117 180.853864 
L 204.472827 181.01943 
L 204.982639 180.997911 
L 205.398919 180.733744 
L 205.470011 180.458176 
L 205.301192 180.300318 
L 204.933776 180.266434 
L 204.561116 180.392977 
L 204.349936 180.588252 
L 204.314494 180.781278 
L 204.658423 180.982495 
L 205.219405 180.947487 
L 205.541104 180.726839 
L 205.547186 180.521929 
L 205.324051 180.350421 
L 204.919306 180.289719 
L 204.526933 180.379648 
L 204.371536 180.488848 
L 204.395653 180.852419 
L 204.76999 181.111286 
L 205.298257 181.188047 
L 205.585353 181.02489 
L 205.586402 180.794286 
L 205.382142 180.544411 
L 204.947617 180.327939 
L 204.611657 180.289077 
L 204.371117 180.355721 
L 204.291635 180.698254 
L 204.537628 181.114338 
L 205.017451 181.443543 
L 205.460784 181.492683 
L 205.66777 181.329044 
L 205.692097 181.03854 
L 205.508598 180.650239 
L 205.067782 180.241382 
L 204.586282 180.070035 
L 204.151128 180.264988 
L 203.911426 180.721219 
L 203.863821 181.314591 
L 204.029285 181.763594 
L 204.297088 181.923861 
L 204.575796 181.832005 
L 204.841502 181.493325 
L 205.009482 180.925486 
L 204.990608 180.31461 
L 204.812352 179.88841 
L 204.674151 179.750465 
L 204.14987 179.684624 
L 203.165059 179.973361 
L 201.109664 180.881164 
L 196.040488 183.412029 
L 180.38386 191.254818 
L 165.247256 198.558273 
L 145.86462 207.635807 
L 106.068484 225.727249 
L 69.218182 242.116364 
L 69.218182 242.116364 
" clip-path="url(#p057172fa04)" style="fill: none; stroke: #8dd3c7; stroke-width: 1.5; stroke-linecap: square"/>
   </g>
   <g id="line2d_17">
    <path d="M 216.141663 216.71265 
L 216.030935 214.430648 
L 215.694975 211.733672 
L 215.053044 208.305378 
L 213.863973 203.531968 
L 212.594582 199.378898 
L 211.127222 195.268342 
L 209.484542 191.310783 
L 207.983838 188.22642 
L 206.623012 185.910101 
L 205.666722 184.644283 
L 204.984317 184.029971 
L 204.764328 183.912099 
L 204.400057 183.84401 
L 204.012927 184.107213 
L 203.837188 184.530844 
L 203.893181 184.916191 
L 204.11338 185.127749 
L 204.400686 185.133081 
L 204.701833 184.925264 
L 204.90861 184.518961 
L 204.894979 184.033825 
L 204.805851 183.860872 
L 204.574118 183.681013 
L 204.025929 183.784592 
L 203.546736 184.204851 
L 203.373303 184.661884 
L 203.471449 184.917957 
L 203.727089 184.997159 
L 204.099119 184.880845 
L 204.495896 184.552042 
L 204.764957 184.058555 
L 204.762231 183.700605 
L 204.556293 183.469198 
L 204.07626 183.426803 
L 203.600632 183.616939 
L 203.424893 183.873558 
L 203.5287 184.064818 
L 203.866128 184.13901 
L 204.312607 184.03254 
L 204.590895 183.842886 
L 204.708125 183.659655 
L 204.650873 183.38778 
L 204.286602 183.167132 
L 203.757916 183.116226 
L 203.378966 183.279704 
L 203.359253 183.483169 
L 203.625378 183.683904 
L 204.138335 183.760183 
L 204.566359 183.642472 
L 204.741469 183.406247 
L 204.604946 183.059859 
L 204.180697 182.809021 
L 203.797762 182.821547 
L 203.646349 183.031596 
L 203.771548 183.302187 
L 204.153854 183.522834 
L 204.402783 183.553507 
L 204.714416 183.444146 
L 204.84276 183.094707 
L 204.688412 182.785094 
L 204.380763 182.637192 
L 204.104991 182.708654 
L 203.983148 182.898629 
L 204.050885 183.22109 
L 204.179439 183.354378 
L 204.436337 183.457796 
L 204.912805 183.238754 
L 205.053731 182.880643 
L 204.962926 182.577132 
L 204.691977 182.418793 
L 204.363357 182.498123 
L 204.145466 182.785736 
L 204.135399 183.052794 
L 204.228931 183.231207 
L 204.51456 183.376057 
L 204.963136 183.281631 
L 205.269945 182.946324 
L 205.235972 182.686974 
L 205.002562 182.548869 
L 204.618997 182.590782 
L 204.288909 182.858001 
L 204.23711 183.047976 
L 204.382022 183.280828 
L 204.81424 183.381196 
L 205.289658 183.22125 
L 205.4201 182.982777 
L 205.285883 182.766465 
L 204.876734 182.656623 
L 204.546856 182.717326 
L 204.358953 182.829416 
L 204.250322 183.058575 
L 204.5435 183.350845 
L 204.970685 183.391313 
L 205.263864 183.212097 
L 205.276237 183.010238 
L 205.077219 182.802919 
L 204.778379 182.710581 
L 204.309461 182.828292 
L 204.23732 183.061305 
L 204.418721 183.343136 
L 204.853875 183.493607 
L 205.148522 183.394525 
L 205.238698 183.146256 
L 205.099868 182.891724 
L 204.821789 182.721983 
L 204.577264 182.679587 
L 204.272971 182.775298 
L 204.152596 183.111729 
L 204.33945 183.386977 
L 204.679814 183.456993 
L 204.941955 183.269908 
L 204.965233 182.96174 
L 204.732661 182.688902 
L 204.430675 182.622579 
L 204.06892 182.865066 
L 204.067243 183.185279 
L 204.268567 183.336552 
L 204.53679 183.324026 
L 204.782992 183.122168 
L 204.831646 182.844672 
L 204.730774 182.660638 
L 204.445984 182.542445 
L 204.031382 182.658069 
L 203.853336 182.92625 
L 203.938479 183.122007 
L 204.183214 183.200695 
L 204.530079 183.100006 
L 204.740211 182.849329 
L 204.731403 182.631572 
L 204.502397 182.460224 
L 204.080245 182.441436 
L 203.709053 182.665456 
L 203.728766 182.900396 
L 203.94519 183.01361 
L 204.335046 182.995624 
L 204.664924 182.791357 
L 204.72658 182.551759 
L 204.376988 182.284702 
L 203.94519 182.291607 
L 203.723104 182.503744 
L 203.807828 182.695325 
L 204.150499 182.830379 
L 204.564681 182.7594 
L 204.743776 182.559468 
L 204.576845 182.213883 
L 204.180068 182.088624 
L 203.869064 182.237971 
L 203.883534 182.469378 
L 204.078358 182.63671 
L 204.525465 182.687617 
L 204.759504 182.520445 
L 204.761392 182.179999 
L 204.490024 181.944416 
L 204.12764 181.956942 
L 203.98147 182.152378 
L 204.019428 182.362908 
L 204.315123 182.593191 
L 204.629273 182.591906 
L 204.904416 182.301082 
L 204.820321 181.977176 
L 204.564681 181.853363 
L 204.283037 181.924664 
L 204.146724 182.096814 
L 204.182165 182.389726 
L 204.385167 182.542767 
L 204.877573 182.441596 
L 205.049327 182.113194 
L 204.92329 181.892225 
L 204.649615 181.822369 
L 204.319947 181.966899 
L 204.207331 182.264147 
L 204.34658 182.466809 
L 204.825145 182.493948 
L 205.122517 182.244073 
L 205.089802 182.003513 
L 204.8285 181.868458 
L 204.399637 181.965132 
L 204.267309 182.107252 
L 204.259759 182.331112 
L 204.663456 182.528635 
L 205.072186 182.402895 
L 205.168235 182.169079 
L 204.984946 181.957906 
L 204.697849 181.897525 
L 204.307364 182.046711 
L 204.24445 182.274745 
L 204.522529 182.53008 
L 204.928952 182.532168 
L 205.124824 182.346849 
L 205.053312 182.087339 
L 204.795156 181.936547 
L 204.318479 181.996928 
L 204.209847 182.204729 
L 204.359163 182.487685 
L 204.710012 182.597366 
L 204.971943 182.488006 
L 205.041568 182.230263 
L 204.892253 182.008651 
L 204.710012 181.912459 
L 204.428368 181.895116 
L 204.138965 182.211313 
L 204.217187 182.451553 
L 204.484152 182.598491 
L 204.758456 182.544694 
L 204.926855 182.305097 
L 204.869394 182.039645 
L 204.712739 181.894313 
L 204.412849 181.833932 
L 204.062839 182.059718 
L 204.072276 182.371098 
L 204.30988 182.502298 
L 204.618158 182.430034 
L 204.786767 182.236686 
L 204.739162 181.892546 
L 204.478909 181.759419 
L 204.058225 181.852239 
L 203.886051 182.122508 
L 204.013976 182.317301 
L 204.330013 182.359375 
L 204.598655 182.241504 
L 204.749229 181.900736 
L 204.570134 181.703374 
L 204.148192 181.648453 
L 203.827122 181.814179 
L 203.794407 182.022462 
L 204.00328 182.179999 
L 204.452695 182.161852 
L 204.637032 182.052331 
L 204.741889 181.835216 
L 204.44158 181.530903 
L 204.00349 181.522231 
L 203.807199 181.687476 
L 203.863612 181.902824 
L 204.06934 182.025513 
L 204.452904 182.040287 
L 204.685476 181.917116 
L 204.746502 181.685067 
L 204.530918 181.40741 
L 204.159936 181.311861 
L 203.871371 181.468434 
L 203.895069 181.70514 
L 204.102055 181.878415 
L 204.58062 181.912299 
L 204.778798 181.725053 
L 204.759504 181.398257 
L 204.49988 181.165565 
L 204.147982 181.15593 
L 203.983777 181.320854 
L 204.028236 181.622277 
L 204.367551 181.844531 
L 204.68967 181.80326 
L 204.939648 181.517574 
L 204.902529 181.199289 
L 204.625498 181.017664 
L 204.291006 181.102133 
L 204.130157 181.386695 
L 204.285344 181.714936 
L 204.598235 181.790734 
L 204.993544 181.64235 
L 205.191932 181.363731 
L 205.130696 181.089286 
L 204.857231 180.969809 
L 204.449339 181.084789 
L 204.254726 181.310255 
L 204.232077 181.50569 
L 204.418512 181.717666 
L 204.858699 181.775157 
L 205.302241 181.572816 
L 205.388643 181.322781 
L 205.209129 181.120761 
L 204.900641 181.052993 
L 204.427949 181.183712 
L 204.274439 181.352971 
L 204.319527 181.609109 
L 204.64563 181.830881 
L 205.153345 181.887086 
L 205.495596 181.7379 
L 205.559139 181.493164 
L 205.388852 181.274123 
L 204.929162 181.098439 
L 204.504494 181.127666 
L 204.261646 181.294035 
L 204.347629 181.666278 
L 204.690719 181.869582 
L 205.055829 181.863159 
L 205.250023 181.685227 
L 205.246248 181.473251 
L 205.037793 181.217756 
L 204.677507 181.077402 
L 204.379715 181.106951 
L 204.173567 181.482084 
L 204.334207 181.807435 
L 204.6385 181.969468 
L 204.965862 181.90989 
L 205.114548 181.691009 
L 205.094206 181.423951 
L 204.94531 181.19431 
L 204.494847 180.999196 
L 204.072066 181.272517 
L 203.980841 181.626613 
L 204.116525 181.964169 
L 204.408236 182.100186 
L 204.721546 181.990666 
L 204.925387 181.68603 
L 204.950553 181.367103 
L 204.815708 181.06311 
L 204.583975 180.901398 
L 204.032011 181.023766 
L 203.635235 181.392155 
L 203.44901 181.84437 
L 203.537508 182.173254 
L 203.777839 182.271052 
L 204.119881 182.179035 
L 204.530288 181.833611 
L 204.773136 181.384768 
L 204.810674 181.089768 
L 204.759504 180.888872 
L 204.513721 180.674006 
L 203.876404 180.676736 
L 203.405599 180.911194 
L 203.252299 181.174719 
L 203.381063 181.359395 
L 203.754771 181.416725 
L 204.27381 181.27332 
L 204.667231 180.939779 
L 204.71148 180.690546 
L 204.281569 180.423007 
L 203.683259 180.405824 
L 203.207421 180.611216 
L 203.152686 180.820944 
L 203.322553 180.973663 
L 203.715764 181.061825 
L 204.261856 180.9947 
L 204.640388 180.775015 
L 204.707705 180.495111 
L 204.488556 180.174738 
L 203.942464 179.868336 
L 203.369109 179.797517 
L 203.106968 179.947506 
L 203.121648 180.152416 
L 203.376868 180.416583 
L 203.920234 180.647027 
L 204.340079 180.679466 
L 204.640597 180.588252 
L 204.740211 180.143905 
L 204.499041 179.666478 
L 203.997408 179.193225 
L 203.421747 178.93773 
L 203.069639 178.990242 
L 202.973801 179.191459 
L 203.07656 179.533832 
L 203.46348 179.981872 
L 203.917298 180.267237 
L 204.371746 180.383181 
L 204.91574 180.12335 
L 205.185431 179.616053 
L 205.287142 178.869159 
L 205.14999 178.163375 
L 204.858489 177.73589 
L 204.538258 177.613201 
L 204.234384 177.730591 
L 203.980212 178.06895 
L 203.82859 178.65911 
L 203.89423 179.332937 
L 204.089263 179.727019 
L 204.262066 179.891301 
L 204.917418 179.957784 
L 205.905794 179.638053 
L 207.557282 178.81761 
L 210.23804 177.209002 
L 214.508001 174.347005 
L 220.115719 170.320425 
L 227.747585 164.583906 
L 239.06683 155.776465 
L 250.219562 146.893548 
L 271.446895 129.662471 
L 307.621712 99.765991 
L 353.255831 61.563104 
L 373.581818 44.443636 
L 373.581818 44.443636 
" clip-path="url(#p057172fa04)" style="fill: none; stroke: #feffb3; stroke-width: 1.5; stroke-linecap: square"/>
   </g>
   <g id="patch_3">
    <path d="M 54 252 
L 54 34.56 
" style="fill: none; stroke: #ffffff; stroke-width: 0.8; stroke-linejoin: miter; stroke-linecap: square"/>
   </g>
   <g id="patch_4">
    <path d="M 388.8 252 
L 388.8 34.56 
" style="fill: none; stroke: #ffffff; stroke-width: 0.8; stroke-linejoin: miter; stroke-linecap: square"/>
   </g>
   <g id="patch_5">
    <path d="M 54 252 
L 388.8 252 
" style="fill: none; stroke: #ffffff; stroke-width: 0.8; stroke-linejoin: miter; stroke-linecap: square"/>
   </g>
   <g id="patch_6">
    <path d="M 54 34.56 
L 388.8 34.56 
" style="fill: none; stroke: #ffffff; stroke-width: 0.8; stroke-linejoin: miter; stroke-linecap: square"/>
   </g>
  </g>
 </g>
 <defs>
  <clipPath id="p057172fa04">
   <rect x="54" y="34.56" width="334.8" height="217.44"/>
  </clipPath>
 </defs>
</svg>
