<?xml version="1.0" encoding="utf-8" standalone="no"?>
<!DOCTYPE svg PUBLIC "-//W3C//DTD SVG 1.1//EN"
  "http://www.w3.org/Graphics/SVG/1.1/DTD/svg11.dtd">
<svg xmlns:xlink="http://www.w3.org/1999/xlink" width="432pt" height="288pt" viewBox="0 0 432 288" xmlns="http://www.w3.org/2000/svg" version="1.1">
 <metadata>
  <rdf:RDF xmlns:dc="http://purl.org/dc/elements/1.1/" xmlns:cc="http://creativecommons.org/ns#" xmlns:rdf="http://www.w3.org/1999/02/22-rdf-syntax-ns#">
   <cc:Work>
    <dc:type rdf:resource="http://purl.org/dc/dcmitype/StillImage"/>
    <dc:date>2022-08-25T17:21:52.716559</dc:date>
    <dc:format>image/svg+xml</dc:format>
    <dc:creator>
     <cc:Agent>
      <dc:title>Matplotlib v3.5.2, https://matplotlib.org/</dc:title>
     </cc:Agent>
    </dc:creator>
   </cc:Work>
  </rdf:RDF>
 </metadata>
 <defs>
  <style type="text/css">*{stroke-linejoin: round; stroke-linecap: butt}</style>
 </defs>
 <g id="figure_1">
  <g id="patch_1">
   <path d="M 0 288 
L 432 288 
L 432 0 
L 0 0 
z
"/>
  </g>
  <g id="axes_1">
   <g id="patch_2">
    <path d="M 54 252 
L 388.8 252 
L 388.8 34.56 
L 54 34.56 
z
"/>
   </g>
   <g id="matplotlib.axis_1">
    <g id="xtick_1">
     <g id="line2d_1">
      <defs>
       <path id="m86f69a4333" d="M 0 0 
L 0 3.5 
" style="stroke: #ffffff; stroke-width: 0.8"/>
      </defs>
      <g>
       <use xlink:href="#m86f69a4333" x="61.503075" y="252" style="fill: #ffffff; stroke: #ffffff; stroke-width: 0.8"/>
      </g>
     </g>
     <g id="text_1">
      <!-- −1.0 -->
      <g style="fill: #ffffff" transform="translate(49.361669 266.598437)scale(0.1 -0.1)">
       <defs>
        <path id="DejaVuSans-2212" d="M 678 2272 
L 4684 2272 
L 4684 1741 
L 678 1741 
L 678 2272 
z
" transform="scale(0.015625)"/>
        <path id="DejaVuSans-31" d="M 794 531 
L 1825 531 
L 1825 4091 
L 703 3866 
L 703 4441 
L 1819 4666 
L 2450 4666 
L 2450 531 
L 3481 531 
L 3481 0 
L 794 0 
L 794 531 
z
" transform="scale(0.015625)"/>
        <path id="DejaVuSans-2e" d="M 684 794 
L 1344 794 
L 1344 0 
L 684 0 
L 684 794 
z
" transform="scale(0.015625)"/>
        <path id="DejaVuSans-30" d="M 2034 4250 
Q 1547 4250 1301 3770 
Q 1056 3291 1056 2328 
Q 1056 1369 1301 889 
Q 1547 409 2034 409 
Q 2525 409 2770 889 
Q 3016 1369 3016 2328 
Q 3016 3291 2770 3770 
Q 2525 4250 2034 4250 
z
M 2034 4750 
Q 2819 4750 3233 4129 
Q 3647 3509 3647 2328 
Q 3647 1150 3233 529 
Q 2819 -91 2034 -91 
Q 1250 -91 836 529 
Q 422 1150 422 2328 
Q 422 3509 836 4129 
Q 1250 4750 2034 4750 
z
" transform="scale(0.015625)"/>
       </defs>
       <use xlink:href="#DejaVuSans-2212"/>
       <use xlink:href="#DejaVuSans-31" x="83.789062"/>
       <use xlink:href="#DejaVuSans-2e" x="147.412109"/>
       <use xlink:href="#DejaVuSans-30" x="179.199219"/>
      </g>
     </g>
    </g>
    <g id="xtick_2">
     <g id="line2d_2">
      <g>
       <use xlink:href="#m86f69a4333" x="113.516199" y="252" style="fill: #ffffff; stroke: #ffffff; stroke-width: 0.8"/>
      </g>
     </g>
     <g id="text_2">
      <!-- −0.5 -->
      <g style="fill: #ffffff" transform="translate(101.374793 266.598437)scale(0.1 -0.1)">
       <defs>
        <path id="DejaVuSans-35" d="M 691 4666 
L 3169 4666 
L 3169 4134 
L 1269 4134 
L 1269 2991 
Q 1406 3038 1543 3061 
Q 1681 3084 1819 3084 
Q 2600 3084 3056 2656 
Q 3513 2228 3513 1497 
Q 3513 744 3044 326 
Q 2575 -91 1722 -91 
Q 1428 -91 1123 -41 
Q 819 9 494 109 
L 494 744 
Q 775 591 1075 516 
Q 1375 441 1709 441 
Q 2250 441 2565 725 
Q 2881 1009 2881 1497 
Q 2881 1984 2565 2268 
Q 2250 2553 1709 2553 
Q 1456 2553 1204 2497 
Q 953 2441 691 2322 
L 691 4666 
z
" transform="scale(0.015625)"/>
       </defs>
       <use xlink:href="#DejaVuSans-2212"/>
       <use xlink:href="#DejaVuSans-30" x="83.789062"/>
       <use xlink:href="#DejaVuSans-2e" x="147.412109"/>
       <use xlink:href="#DejaVuSans-35" x="179.199219"/>
      </g>
     </g>
    </g>
    <g id="xtick_3">
     <g id="line2d_3">
      <g>
       <use xlink:href="#m86f69a4333" x="165.529323" y="252" style="fill: #ffffff; stroke: #ffffff; stroke-width: 0.8"/>
      </g>
     </g>
     <g id="text_3">
      <!-- 0.0 -->
      <g style="fill: #ffffff" transform="translate(157.57776 266.598437)scale(0.1 -0.1)">
       <use xlink:href="#DejaVuSans-30"/>
       <use xlink:href="#DejaVuSans-2e" x="63.623047"/>
       <use xlink:href="#DejaVuSans-30" x="95.410156"/>
      </g>
     </g>
    </g>
    <g id="xtick_4">
     <g id="line2d_4">
      <g>
       <use xlink:href="#m86f69a4333" x="217.542447" y="252" style="fill: #ffffff; stroke: #ffffff; stroke-width: 0.8"/>
      </g>
     </g>
     <g id="text_4">
      <!-- 0.5 -->
      <g style="fill: #ffffff" transform="translate(209.590884 266.598437)scale(0.1 -0.1)">
       <use xlink:href="#DejaVuSans-30"/>
       <use xlink:href="#DejaVuSans-2e" x="63.623047"/>
       <use xlink:href="#DejaVuSans-35" x="95.410156"/>
      </g>
     </g>
    </g>
    <g id="xtick_5">
     <g id="line2d_5">
      <g>
       <use xlink:href="#m86f69a4333" x="269.555571" y="252" style="fill: #ffffff; stroke: #ffffff; stroke-width: 0.8"/>
      </g>
     </g>
     <g id="text_5">
      <!-- 1.0 -->
      <g style="fill: #ffffff" transform="translate(261.604008 266.598437)scale(0.1 -0.1)">
       <use xlink:href="#DejaVuSans-31"/>
       <use xlink:href="#DejaVuSans-2e" x="63.623047"/>
       <use xlink:href="#DejaVuSans-30" x="95.410156"/>
      </g>
     </g>
    </g>
    <g id="xtick_6">
     <g id="line2d_6">
      <g>
       <use xlink:href="#m86f69a4333" x="321.568694" y="252" style="fill: #ffffff; stroke: #ffffff; stroke-width: 0.8"/>
      </g>
     </g>
     <g id="text_6">
      <!-- 1.5 -->
      <g style="fill: #ffffff" transform="translate(313.617132 266.598437)scale(0.1 -0.1)">
       <use xlink:href="#DejaVuSans-31"/>
       <use xlink:href="#DejaVuSans-2e" x="63.623047"/>
       <use xlink:href="#DejaVuSans-35" x="95.410156"/>
      </g>
     </g>
    </g>
    <g id="xtick_7">
     <g id="line2d_7">
      <g>
       <use xlink:href="#m86f69a4333" x="373.581818" y="252" style="fill: #ffffff; stroke: #ffffff; stroke-width: 0.8"/>
      </g>
     </g>
     <g id="text_7">
      <!-- 2.0 -->
      <g style="fill: #ffffff" transform="translate(365.630256 266.598437)scale(0.1 -0.1)">
       <defs>
        <path id="DejaVuSans-32" d="M 1228 531 
L 3431 531 
L 3431 0 
L 469 0 
L 469 531 
Q 828 903 1448 1529 
Q 2069 2156 2228 2338 
Q 2531 2678 2651 2914 
Q 2772 3150 2772 3378 
Q 2772 3750 2511 3984 
Q 2250 4219 1831 4219 
Q 1534 4219 1204 4116 
Q 875 4013 500 3803 
L 500 4441 
Q 881 4594 1212 4672 
Q 1544 4750 1819 4750 
Q 2544 4750 2975 4387 
Q 3406 4025 3406 3419 
Q 3406 3131 3298 2873 
Q 3191 2616 2906 2266 
Q 2828 2175 2409 1742 
Q 1991 1309 1228 531 
z
" transform="scale(0.015625)"/>
       </defs>
       <use xlink:href="#DejaVuSans-32"/>
       <use xlink:href="#DejaVuSans-2e" x="63.623047"/>
       <use xlink:href="#DejaVuSans-30" x="95.410156"/>
      </g>
     </g>
    </g>
   </g>
   <g id="matplotlib.axis_2">
    <g id="ytick_1">
     <g id="line2d_8">
      <defs>
       <path id="mcd9ceccc5d" d="M 0 0 
L -3.5 0 
" style="stroke: #ffffff; stroke-width: 0.8"/>
      </defs>
      <g>
       <use xlink:href="#mcd9ceccc5d" x="54" y="251.612443" style="fill: #ffffff; stroke: #ffffff; stroke-width: 0.8"/>
      </g>
     </g>
     <g id="text_8">
      <!-- −1.5 -->
      <g style="fill: #ffffff" transform="translate(22.717187 255.411662)scale(0.1 -0.1)">
       <use xlink:href="#DejaVuSans-2212"/>
       <use xlink:href="#DejaVuSans-31" x="83.789062"/>
       <use xlink:href="#DejaVuSans-2e" x="147.412109"/>
       <use xlink:href="#DejaVuSans-35" x="179.199219"/>
      </g>
     </g>
    </g>
    <g id="ytick_2">
     <g id="line2d_9">
      <g>
       <use xlink:href="#mcd9ceccc5d" x="54" y="215.500184" style="fill: #ffffff; stroke: #ffffff; stroke-width: 0.8"/>
      </g>
     </g>
     <g id="text_9">
      <!-- −1.0 -->
      <g style="fill: #ffffff" transform="translate(22.717187 219.299403)scale(0.1 -0.1)">
       <use xlink:href="#DejaVuSans-2212"/>
       <use xlink:href="#DejaVuSans-31" x="83.789062"/>
       <use xlink:href="#DejaVuSans-2e" x="147.412109"/>
       <use xlink:href="#DejaVuSans-30" x="179.199219"/>
      </g>
     </g>
    </g>
    <g id="ytick_3">
     <g id="line2d_10">
      <g>
       <use xlink:href="#mcd9ceccc5d" x="54" y="179.387925" style="fill: #ffffff; stroke: #ffffff; stroke-width: 0.8"/>
      </g>
     </g>
     <g id="text_10">
      <!-- −0.5 -->
      <g style="fill: #ffffff" transform="translate(22.717187 183.187144)scale(0.1 -0.1)">
       <use xlink:href="#DejaVuSans-2212"/>
       <use xlink:href="#DejaVuSans-30" x="83.789062"/>
       <use xlink:href="#DejaVuSans-2e" x="147.412109"/>
       <use xlink:href="#DejaVuSans-35" x="179.199219"/>
      </g>
     </g>
    </g>
    <g id="ytick_4">
     <g id="line2d_11">
      <g>
       <use xlink:href="#mcd9ceccc5d" x="54" y="143.275667" style="fill: #ffffff; stroke: #ffffff; stroke-width: 0.8"/>
      </g>
     </g>
     <g id="text_11">
      <!-- 0.0 -->
      <g style="fill: #ffffff" transform="translate(31.096875 147.074885)scale(0.1 -0.1)">
       <use xlink:href="#DejaVuSans-30"/>
       <use xlink:href="#DejaVuSans-2e" x="63.623047"/>
       <use xlink:href="#DejaVuSans-30" x="95.410156"/>
      </g>
     </g>
    </g>
    <g id="ytick_5">
     <g id="line2d_12">
      <g>
       <use xlink:href="#mcd9ceccc5d" x="54" y="107.163408" style="fill: #ffffff; stroke: #ffffff; stroke-width: 0.8"/>
      </g>
     </g>
     <g id="text_12">
      <!-- 0.5 -->
      <g style="fill: #ffffff" transform="translate(31.096875 110.962626)scale(0.1 -0.1)">
       <use xlink:href="#DejaVuSans-30"/>
       <use xlink:href="#DejaVuSans-2e" x="63.623047"/>
       <use xlink:href="#DejaVuSans-35" x="95.410156"/>
      </g>
     </g>
    </g>
    <g id="ytick_6">
     <g id="line2d_13">
      <g>
       <use xlink:href="#mcd9ceccc5d" x="54" y="71.051149" style="fill: #ffffff; stroke: #ffffff; stroke-width: 0.8"/>
      </g>
     </g>
     <g id="text_13">
      <!-- 1.0 -->
      <g style="fill: #ffffff" transform="translate(31.096875 74.850367)scale(0.1 -0.1)">
       <use xlink:href="#DejaVuSans-31"/>
       <use xlink:href="#DejaVuSans-2e" x="63.623047"/>
       <use xlink:href="#DejaVuSans-30" x="95.410156"/>
      </g>
     </g>
    </g>
    <g id="ytick_7">
     <g id="line2d_14">
      <g>
       <use xlink:href="#mcd9ceccc5d" x="54" y="34.93889" style="fill: #ffffff; stroke: #ffffff; stroke-width: 0.8"/>
      </g>
     </g>
     <g id="text_14">
      <!-- 1.5 -->
      <g style="fill: #ffffff" transform="translate(31.096875 38.738109)scale(0.1 -0.1)">
       <use xlink:href="#DejaVuSans-31"/>
       <use xlink:href="#DejaVuSans-2e" x="63.623047"/>
       <use xlink:href="#DejaVuSans-35" x="95.410156"/>
      </g>
     </g>
    </g>
   </g>
   <g id="line2d_15">
    <path d="M 165.529323 143.275667 
L 165.640951 143.647209 
L 165.976112 143.975205 
L 166.536963 144.205868 
L 167.239275 144.25641 
L 167.914187 144.089687 
L 168.37622 143.761699 
L 168.564757 143.37816 
L 168.513846 143.002867 
L 168.237896 142.656968 
L 167.730914 142.391415 
L 167.048865 142.287332 
L 166.348556 142.398955 
L 165.819027 142.695564 
L 165.560269 143.077349 
L 165.555969 143.459783 
L 165.774273 143.813365 
L 166.220759 144.10388 
L 166.86682 144.256699 
L 167.583384 144.201563 
L 168.173826 143.942872 
L 168.500739 143.576499 
L 168.567357 143.190935 
L 168.409071 142.829492 
L 168.023768 142.515518 
L 167.422517 142.317197 
L 166.704674 142.313268 
L 166.065289 142.522726 
L 165.662298 142.871596 
L 165.529555 143.258375 
L 165.631002 143.630828 
L 165.955983 143.961875 
L 166.506958 144.198609 
L 167.208327 144.258678 
L 167.883291 144.103121 
L 168.358993 143.780982 
L 168.561657 143.39587 
L 168.521076 143.019764 
L 168.258295 142.673825 
L 167.768998 142.404169 
L 167.097061 142.287751 
L 166.390231 142.385362 
L 165.84707 142.671201 
L 165.569864 143.049004 
L 165.549022 143.434116 
L 165.752131 143.790474 
L 166.183328 144.087499 
L 166.821474 144.252626 
L 167.538569 144.211884 
L 168.140652 143.965658 
L 168.489421 143.598593 
L 168.569469 143.208739 
L 168.420649 142.844658 
L 168.047351 142.528489 
L 167.454277 142.322599 
L 166.737255 142.30853 
L 166.091613 142.508483 
L 165.675588 142.852816 
L 165.53025 143.241088 
L 165.621518 143.614363 
L 165.936315 143.948348 
L 166.477376 144.19099 
L 167.171367 144.260845 
L 167.852167 144.115955 
L 168.341194 143.799897 
L 168.558078 143.41352 
L 168.525612 143.031013 
L 168.26823 142.682306 
L 167.781491 142.408539 
L 167.109034 142.287989 
L 166.404242 142.381 
L 165.855675 142.664004 
L 165.572974 143.040556 
L 165.546952 143.42557 
L 165.74503 143.782803 
L 166.17116 144.081923 
L 166.804757 144.250878 
L 167.519501 144.215958 
L 168.129573 143.97294 
L 168.483533 143.60942 
L 168.570593 143.22054 
L 168.428118 142.854797 
L 168.05894 142.535055 
L 167.473282 142.326051 
L 166.759121 142.305619 
L 166.106885 142.500495 
L 165.681446 142.844832 
L 165.53077 143.232468 
L 165.616971 143.60612 
L 165.926701 143.94153 
L 166.462821 144.187053 
L 166.966154 144.262362 
L 166.966154 144.262362 
" clip-path="url(#p2c9f6e9408)" style="fill: none; stroke: #8dd3c7; stroke-width: 1.5; stroke-linecap: square"/>
   </g>
   <g id="line2d_16">
    <path d="M 373.581818 143.275667 
L 373.47155 139.520656 
L 373.141787 135.769661 
L 372.592529 132.026698 
L 371.823775 128.295796 
L 370.834485 124.581 
L 369.6257 120.886427 
L 368.196379 117.216266 
L 366.547563 113.574706 
L 364.525293 109.689893 
L 362.418762 106.121425 
L 360.092735 102.59499 
L 357.3402 98.849571 
L 354.556458 95.425046 
L 351.310839 91.800386 
L 348.069381 88.49857 
L 344.607387 85.263634 
L 340.632544 81.860703 
L 336.403878 78.54827 
L 331.919306 75.333485 
L 327.181951 72.223714 
L 322.190771 69.226757 
L 316.946808 66.350777 
L 311.852643 63.795474 
L 306.125998 61.177335 
L 300.5866 58.876984 
L 294.384555 56.550632 
L 287.938049 54.390397 
L 281.738084 52.543616 
L 275.334229 50.858618 
L 268.730434 49.344792 
L 261.930967 48.012972 
L 254.940923 46.873269 
L 247.766441 45.937962 
L 240.986322 45.264829 
L 233.478019 44.754924 
L 226.404755 44.49636 
L 219.203538 44.453748 
L 211.884355 44.636476 
L 204.458441 45.057545 
L 197.568783 45.662786 
L 190.611924 46.486868 
L 183.600659 47.540624 
L 176.549551 48.83272 
L 169.475049 50.373992 
L 163.038737 51.999765 
L 156.613597 53.846546 
L 150.216659 55.921557 
L 143.866585 58.232019 
L 138.208701 60.517925 
L 132.621868 63.003171 
L 127.123872 65.69209 
L 121.733752 68.58757 
L 116.471793 71.692141 
L 111.919812 74.627562 
L 107.502442 77.728883 
L 103.236429 80.995309 
L 99.139459 84.425035 
L 95.229321 88.015388 
L 91.975796 91.285642 
L 88.891938 94.672466 
L 85.990126 98.171672 
L 83.282739 101.778275 
L 80.781844 105.486499 
L 78.499092 109.289625 
L 76.445509 113.180143 
L 74.631708 117.149819 
L 73.066841 121.189409 
L 71.930354 124.700171 
L 70.987564 128.248561 
L 70.242528 131.827719 
L 69.698367 135.430423 
L 69.357369 139.049456 
L 69.220887 142.677281 
L 69.289648 146.306352 
L 69.563341 149.929105 
L 70.040717 153.538048 
L 70.719697 157.125729 
L 71.597574 160.685098 
L 72.670709 164.209004 
L 73.934628 167.690804 
L 75.643571 171.691392 
L 77.596248 175.61665 
L 79.782671 179.457911 
L 82.192127 183.207375 
L 84.813069 186.857963 
L 87.633532 190.403537 
L 90.641451 193.838751 
L 93.824238 197.159129 
L 97.169514 200.36077 
L 101.175773 203.870881 
L 105.359813 207.218777 
L 109.703949 210.402361 
L 114.191017 213.420335 
L 118.804477 216.272264 
L 123.528621 218.959016 
L 128.957127 221.785162 
L 134.486954 224.405467 
L 140.099378 226.823544 
L 145.777339 229.043004 
L 152.143537 231.281964 
L 158.550795 233.286916 
L 164.980932 235.066528 
L 171.417427 236.626578 
L 177.845406 237.97501 
L 184.890168 239.223049 
L 191.892487 240.23347 
L 198.837799 241.017106 
L 205.71383 241.583347 
L 213.122475 241.963248 
L 220.422621 242.107697 
L 227.602825 242.027527 
L 234.65362 241.734296 
L 242.13602 241.187556 
L 249.447297 240.416921 
L 256.57944 239.432501 
L 263.525689 238.248018 
L 270.791402 236.759471 
L 277.334653 235.192199 
L 284.154614 233.315806 
L 290.737395 231.255241 
L 296.634643 229.187453 
L 302.320718 226.979549 
L 308.206523 224.45458 
L 313.843705 221.785162 
L 319.230184 218.982128 
L 324.36596 216.053424 
L 329.247912 213.006705 
L 333.87708 209.850927 
L 338.251384 206.593312 
L 342.371863 203.241156 
L 346.236438 199.801463 
L 349.846149 196.281023 
L 353.199955 192.686193 
L 356.298897 189.023326 
L 359.141935 185.298563 
L 361.729068 181.517682 
L 364.061336 177.68646 
L 366.1377 173.810459 
L 367.959199 169.89524 
L 369.524795 165.946076 
L 370.750224 162.253236 
L 371.756158 158.539885 
L 372.542596 154.810066 
L 373.108499 151.067825 
L 373.454906 147.317307 
L 373.580778 143.562462 
L 373.488195 139.807308 
L 373.175076 136.055858 
L 372.642461 132.312129 
L 371.889311 128.580144 
L 370.917706 124.863976 
L 369.724525 121.167742 
L 368.312889 117.495558 
L 366.545483 113.572684 
L 364.676131 109.963986 
L 362.586244 106.392555 
L 360.276861 102.862726 
L 357.542011 99.113263 
L 354.774913 95.684693 
L 351.787279 92.312097 
L 348.323205 88.748467 
L 344.877856 85.508258 
L 340.920697 82.099189 
L 336.709715 78.780111 
L 332.243868 75.558103 
L 327.523157 72.440676 
L 322.913754 69.646382 
L 317.70516 66.752345 
L 312.246902 63.986869 
L 306.536902 61.358618 
L 301.014148 59.048156 
L 294.828747 56.710248 
L 288.399925 54.538457 
L 282.214525 52.679398 
L 275.826273 50.9814 
L 269.237146 49.454573 
L 262.452242 48.108308 
L 255.476346 46.954161 
L 248.315491 46.002964 
L 241.54744 45.314664 
L 234.634063 44.819204 
L 227.582748 44.525972 
L 220.40192 44.446525 
L 213.101358 44.591697 
L 205.692193 44.97232 
L 198.815746 45.53856 
L 191.235561 46.405254 
L 184.228457 47.438065 
L 177.180263 48.708494 
L 170.107019 50.227376 
L 163.670384 51.831482 
L 157.243331 53.656596 
L 150.842689 55.709217 
L 145.120101 57.756782 
L 139.448694 59.998631 
L 133.844696 62.439819 
L 128.32548 65.083959 
L 122.909769 67.933939 
L 117.617746 70.991925 
L 113.03487 73.886394 
L 108.582546 76.946692 
L 104.277524 80.172383 
L 100.136967 83.561952 
L 96.178872 87.11287 
L 92.879576 90.34954 
L 89.746409 93.703791 
L 86.791856 97.171723 
L 84.028191 100.748498 
L 81.467585 104.428626 
L 79.122001 108.20568 
L 77.002466 112.072291 
L 75.119799 116.020445 
L 73.483674 120.041256 
L 72.284147 123.53815 
L 71.276965 127.07484 
L 70.466393 130.644682 
L 69.855551 134.240379 
L 69.447352 137.854891 
L 69.243252 141.480649 
L 69.244292 145.11014 
L 69.450472 148.735811 
L 69.860752 152.350099 
L 70.473571 155.945653 
L 71.286224 159.515133 
L 72.295278 163.051462 
L 73.496781 166.547851 
L 74.885636 169.997944 
L 76.735743 173.956353 
L 78.823966 177.834376 
L 81.139902 181.623852 
L 83.672213 185.317269 
L 86.409143 188.908272 
L 89.338731 192.391083 
L 92.448595 195.76079 
L 95.72615 199.013349 
L 99.661463 202.582974 
L 103.781319 205.99161 
L 108.067824 209.236585 
L 112.503503 212.316383 
L 117.071712 215.230209 
L 122.34938 218.31044 
L 127.752919 221.182087 
L 133.261941 223.847172 
L 138.857721 226.309306 
L 144.522574 228.5721 
L 150.240273 230.639888 
L 156.637222 232.714176 
L 163.062268 234.560235 
L 169.498413 236.185286 
L 176.572645 237.725835 
L 183.62344 239.01721 
L 190.634393 240.070243 
L 197.590941 240.893603 
L 204.480183 241.498122 
L 211.905576 241.918468 
L 219.224343 242.101196 
L 226.424936 242.05714 
L 233.49768 241.798576 
L 240.433735 241.334894 
L 247.784957 240.614094 
L 254.958711 239.678064 
L 261.948131 238.538361 
L 268.747079 237.206541 
L 275.349833 235.691993 
L 281.753688 234.006995 
L 288.421771 232.010709 
L 294.849553 229.838196 
L 301.033913 227.500288 
L 306.972772 225.006375 
L 312.663007 222.368014 
L 318.10358 219.592426 
L 323.292409 216.689722 
L 328.228455 213.667487 
L 332.911716 210.534388 
L 337.340114 207.297935 
L 341.514687 203.965423 
L 345.433356 200.543859 
L 349.098201 197.040031 
L 352.5061 193.460584 
L 355.442761 190.074554 
L 358.358617 186.366836 
L 361.018568 182.601339 
L 363.422615 178.783912 
L 365.427201 175.197531 
L 367.339203 171.295674 
L 368.886073 167.640319 
L 370.213448 163.958385 
L 371.320288 160.253917 
L 372.207631 156.531177 
L 372.87444 152.794208 
L 373.322793 149.047005 
L 373.55061 145.293648 
L 373.557892 141.53814 
L 373.346719 137.78448 
L 372.872359 133.748747 
L 372.204511 130.011778 
L 371.316127 126.28911 
L 370.208247 122.584714 
L 368.879832 118.902781 
L 367.331921 115.247498 
L 365.564515 111.623127 
L 363.414293 107.759477 
L 361.188131 104.213181 
L 358.742474 100.711303 
L 356.076281 97.258537 
L 352.958615 93.600438 
L 349.835747 90.264893 
L 346.224996 86.744525 
L 342.643372 83.547868 
L 338.842253 80.426252 
L 334.821638 77.385311 
L 330.246564 74.207288 
L 325.771355 71.352614 
L 320.706317 68.389675 
L 315.390575 65.549807 
L 309.824131 62.84211 
L 304.008023 60.275251 
L 298.386445 58.026179 
L 292.552653 55.914334 
L 286.037489 53.804656 
L 279.774069 52.006266 
L 273.307797 50.373269 
L 266.642107 48.915056 
L 259.782721 47.641738 
L 252.734734 46.564148 
L 245.504286 45.693843 
L 238.098865 45.0431 
L 231.115271 44.648032 
L 223.997795 44.460248 
L 216.755488 44.492027 
L 209.398856 44.75348 
L 202.564956 45.205605 
L 195.023885 45.941573 
L 188.045284 46.848713 
L 181.017479 47.989138 
L 173.955584 49.371515 
L 167.52051 50.847062 
L 161.085727 52.539283 
L 154.66711 54.454677 
L 148.282187 56.600467 
L 142.580404 58.734702 
L 136.93698 61.065387 
L 131.368559 63.596134 
L 125.893138 66.331999 
L 120.529961 69.275148 
L 115.87385 72.065975 
L 111.338305 75.022992 
L 106.939452 78.145835 
L 102.694348 81.43364 
L 98.620577 84.884455 
L 94.736028 88.495464 
L 91.506846 91.783269 
L 88.449098 95.187138 
L 85.575373 98.702666 
L 82.897841 102.324871 
L 80.42857 106.047611 
L 78.179211 109.864243 
L 76.160582 113.767112 
L 74.383189 117.747766 
L 73.058623 121.214688 
L 71.923384 124.725738 
L 70.981947 128.274418 
L 70.238263 131.85372 
L 69.695454 135.45664 
L 69.355809 139.075731 
L 69.220678 142.70359 
L 69.290792 146.332641 
L 69.565838 149.955322 
L 70.044566 153.564121 
L 70.725002 157.151658 
L 71.604232 160.710737 
L 72.678511 164.234355 
L 73.943678 167.715938 
L 75.654078 171.71602 
L 77.608107 175.640773 
L 79.795883 179.481528 
L 82.206483 183.230414 
L 84.828569 186.880352 
L 87.650073 190.425348 
L 90.658928 193.859841 
L 93.842651 197.179496 
L 97.188759 200.380487 
L 101.195746 203.88966 
L 105.380618 207.236761 
L 109.725379 210.419478 
L 114.212967 213.436658 
L 118.826843 216.288154 
L 124.149034 219.297749 
L 129.590023 222.100061 
L 135.130149 224.696532 
L 140.750895 227.091497 
L 146.435201 229.288567 
L 152.806393 231.502971 
L 159.216656 233.484089 
L 165.648018 235.24059 
L 172.084121 236.77825 
L 178.510238 238.105736 
L 185.551463 239.330664 
L 192.548788 240.319418 
L 199.487963 241.082109 
L 206.356608 241.628126 
L 213.756307 241.987804 
L 221.046259 242.11203 
L 228.21554 242.013083 
L 235.25458 241.701795 
L 242.154953 241.189001 
L 248.909481 240.484812 
L 256.055044 239.516281 
L 263.015232 238.345522 
L 269.784428 236.984812 
L 276.854052 235.31787 
L 283.690657 233.454477 
L 289.826125 231.558584 
L 295.754581 229.513185 
L 301.903572 227.152166 
L 307.807062 224.637308 
L 313.460889 221.978001 
L 318.865052 219.183635 
L 324.018512 216.263597 
L 328.918149 213.22504 
L 333.563961 210.076629 
L 337.956989 206.825948 
L 342.094113 203.480147 
L 345.976373 200.046376 
L 349.603768 196.531354 
L 352.74328 193.200359 
L 355.877591 189.546737 
L 358.559388 186.097728 
L 361.020649 182.599389 
L 363.262414 179.056198 
L 365.282604 175.472707 
L 367.083298 171.853319 
L 368.664497 168.202442 
L 370.025161 164.524336 
L 371.165288 160.823046 
L 372.085921 157.102834 
L 372.787058 153.367815 
L 373.268699 149.621898 
L 373.540208 145.580394 
L 373.565174 141.824907 
L 373.370645 138.070966 
L 372.91397 134.034612 
L 372.262765 130.296704 
L 371.391025 126.572736 
L 370.29979 122.866823 
L 368.989059 119.183084 
L 367.457793 115.525635 
L 365.705991 111.898736 
L 363.734694 108.306722 
L 361.364976 104.482506 
L 358.935963 100.977089 
L 356.286414 97.520351 
L 353.186432 93.857701 
L 350.080208 90.51739 
L 346.487142 86.991605 
L 342.639211 83.546135 
L 338.838092 80.424591 
L 334.499157 77.153326 
L 329.905358 73.982814 
L 325.057735 70.920422 
L 319.957328 67.975107 
L 314.605177 65.153295 
L 309.002324 62.465098 
L 303.150847 59.919184 
L 297.051788 57.524941 
L 290.709308 55.293203 
L 284.602967 53.37492 
L 278.291695 51.614086 
L 271.778611 50.020814 
L 265.067774 48.603769 
L 258.164072 47.37523 
L 251.073019 46.344586 
L 243.801168 45.524115 
L 236.934916 44.963653 
L 229.928124 44.60253 
L 222.788906 44.451581 
L 215.526626 44.520917 
L 208.151789 44.822815 
L 201.303013 45.312497 
L 193.748211 46.092522 
L 186.759416 47.041552 
L 179.724016 48.225312 
L 172.657628 49.653913 
L 166.221319 51.172072 
L 159.788374 52.909072 
L 153.375 54.869968 
L 146.999023 57.063426 
L 140.680261 59.495226 
L 135.059931 61.89308 
L 129.520533 64.49244 
L 124.080481 67.296918 
L 118.759642 70.310125 
L 114.147014 73.163571 
L 109.66109 76.183206 
L 105.318202 79.368524 
L 101.135619 82.718153 
L 97.131129 86.229853 
L 93.322728 89.900303 
L 90.165947 93.238737 
L 87.186115 96.691358 
L 84.395507 100.253544 
L 81.806294 103.919949 
L 79.430543 107.684074 
L 77.279384 111.538986 
L 75.363636 115.47645 
L 73.693079 119.487872 
L 72.463177 122.977832 
L 71.424995 126.508672 
L 70.58259 130.073602 
L 69.939708 133.665761 
L 69.498949 137.277731 
L 69.262185 140.902188 
L 69.230353 144.531593 
L 69.403765 148.158383 
L 69.781484 151.774976 
L 70.362054 155.373996 
L 71.142875 158.948098 
L 72.120826 162.490205 
L 73.29185 165.993455 
L 74.651161 169.451348 
L 76.467771 173.420014 
L 78.523954 177.30952 
L 80.809202 181.111564 
L 83.31249 184.818559 
L 86.022062 188.423863 
L 88.92585 191.921768 
L 92.011685 195.30722 
L 95.266874 198.57603 
L 99.178781 202.164794 
L 103.277312 205.592858 
L 107.544572 208.857551 
L 111.963191 211.957138 
L 116.516212 214.890898 
L 121.187615 217.658975 
L 126.565252 220.575401 
L 132.052844 223.285987 
L 137.631148 225.792178 
L 143.282165 228.098307 
L 149.626518 230.430437 
L 156.019597 232.527114 
L 162.442531 234.39484 
L 168.878125 236.040115 
L 175.310869 237.471605 
L 182.366907 238.807036 
L 189.38587 239.90196 
L 196.352924 240.765765 
L 203.878703 241.456232 
L 210.696375 241.868634 
L 218.033243 242.089641 
L 225.253808 242.082418 
L 232.347878 241.8578 
L 239.306714 241.427342 
L 246.68384 240.740487 
L 253.884849 239.836236 
L 260.902459 238.726867 
L 267.730326 237.423214 
L 274.363664 235.936112 
L 281.28349 234.141332 
L 287.968216 232.158047 
L 294.412642 229.99709 
L 300.178817 227.84191 
L 305.733819 225.55167 
L 311.476068 222.942921 
L 316.969694 220.1955 
L 322.212617 217.318798 
L 327.202756 214.321697 
L 331.939071 211.211637 
L 336.421562 207.996563 
L 340.650229 204.683841 
L 344.622991 201.280693 
L 348.083945 198.045541 
L 351.325402 194.74358 
L 354.568941 191.118704 
L 357.556575 187.428464 
L 360.103137 183.94847 
L 362.598727 180.148883 
L 364.686534 176.577308 
L 366.554845 172.968538 
L 368.202621 169.326906 
L 369.630901 165.656672 
L 370.839686 161.962027 
L 371.894512 157.960789 
L 372.645582 154.228731 
L 373.177156 150.484981 
L 373.489235 146.733516 
L 373.580778 142.978359 
L 373.453866 139.223517 
L 373.070009 135.184787 
L 372.485382 131.443413 
L 371.751996 128.001048 
L 370.745022 124.287696 
L 369.414527 120.311881 
L 367.949837 116.645909 
L 366.266692 113.009188 
L 364.206973 109.13037 
L 362.065072 105.568185 
L 359.703676 102.048756 
L 357.121745 98.576562 
L 354.320318 95.15637 
L 351.055975 91.536767 
L 347.535726 87.989243 
L 343.760614 84.520227 
L 340.027112 81.375066 
L 335.759955 78.076355 
L 331.238974 74.876376 
L 326.463129 71.782566 
L 321.4345 68.802799 
L 316.154128 65.944875 
L 310.622012 63.217678 
L 304.841274 60.630595 
L 298.812953 58.192296 
L 292.994765 56.070339 
L 286.968524 54.093554 
L 280.735271 52.27133 
L 274.299167 50.612332 
L 267.663645 49.126674 
L 260.833178 47.825188 
L 253.81307 46.717264 
L 247.170162 45.876571 
L 240.37652 45.220772 
L 233.438698 44.758535 
L 225.768946 44.48986 
L 218.556495 44.466026 
L 211.226909 44.669699 
L 204.415062 45.066212 
L 197.524572 45.672175 
L 189.931488 46.584371 
L 182.915334 47.660516 
L 175.860835 48.977169 
L 169.42832 50.389881 
L 162.991686 52.017099 
L 156.566349 53.866047 
L 150.169327 55.942502 
L 143.819357 58.255131 
L 138.161681 60.542481 
L 132.575264 63.029894 
L 127.077789 65.720257 
L 121.688397 68.617905 
L 117.004927 71.368431 
L 112.438279 74.284785 
L 108.004264 77.367038 
L 103.719839 80.614614 
L 99.602272 84.025706 
L 95.66956 87.597858 
L 92.394502 90.852584 
L 89.287446 94.224385 
L 86.360875 97.709146 
L 83.627169 101.302099 
L 81.098291 104.997394 
L 78.786204 108.788532 
L 76.701934 112.668071 
L 74.855884 116.627853 
L 73.257937 120.658848 
L 72.092011 124.163326 
L 71.119261 127.706444 
L 70.343746 131.281341 
L 69.768585 134.880939 
L 69.396379 138.498 
L 69.22848 142.124964 
L 69.265826 145.754333 
L 69.508207 149.378537 
L 69.954376 152.990081 
L 70.602771 156.581445 
L 71.450377 160.14558 
L 72.49376 163.675337 
L 73.72876 167.163998 
L 75.404935 171.173687 
L 77.326092 175.109273 
L 79.482348 178.961945 
L 81.863092 182.723831 
L 84.456779 186.387709 
L 87.251652 189.947367 
L 90.235541 193.397315 
L 93.395858 196.73286 
L 96.720329 199.950318 
L 100.704742 203.478774 
L 104.869121 206.845376 
L 109.195469 210.047883 
L 113.666621 213.084996 
L 118.266141 215.955921 
L 122.978114 218.661451 
L 128.394761 221.508542 
L 133.91481 224.149793 
L 139.519328 226.588815 
L 145.190943 228.828497 
L 151.552044 231.089124 
L 157.955962 233.115744 
L 164.384358 234.915579 
L 170.820576 236.495852 
L 177.249544 237.863784 
L 184.296906 239.132047 
L 191.30297 240.16269 
L 198.253276 240.965105 
L 205.135236 241.548679 
L 212.551475 241.948081 
L 219.860047 242.109863 
L 227.049613 242.047028 
L 234.110395 241.770408 
L 241.604342 241.241002 
L 248.927894 240.485534 
L 256.072833 239.516281 
L 263.032293 238.345522 
L 269.800032 236.984089 
L 276.372411 235.442818 
L 282.744018 233.731097 
L 289.376732 231.708811 
L 295.769145 229.511741 
L 301.917096 227.149999 
L 307.819545 224.635141 
L 313.473372 221.975835 
L 318.876495 219.181468 
L 324.028915 216.260709 
L 328.928551 213.222006 
L 333.574364 210.073451 
L 337.965312 206.822625 
L 342.102435 203.476752 
L 345.984695 200.042837 
L 349.61105 196.527742 
L 352.749522 193.196603 
L 355.668498 189.806095 
L 358.564589 186.0939 
L 361.02585 182.595416 
L 363.429897 178.777917 
L 365.433442 175.191464 
L 367.344404 171.289535 
L 368.891275 167.63418 
L 370.310193 163.66797 
L 371.399348 159.961914 
L 372.269007 156.237945 
L 372.919171 152.499965 
L 373.348799 148.752148 
L 373.558932 144.998481 
L 373.54957 141.242972 
L 373.293665 137.201122 
L 372.827628 133.454577 
L 372.079679 129.431743 
L 371.156966 125.711675 
L 370.013718 122.010457 
L 368.652014 118.332424 
L 366.938702 114.40211 
L 365.118243 110.785539 
L 363.079328 107.205226 
L 360.635752 103.395021 
L 358.138081 99.904194 
L 355.420916 96.46349 
L 352.247075 92.819691 
L 349.072194 89.498591 
L 345.406309 85.995196 
L 341.484519 82.573993 
L 337.615783 79.476789 
L 333.20299 76.233691 
L 328.535332 73.093514 
L 323.974821 70.27618 
L 318.820321 67.356865 
L 313.413037 64.56322 
L 307.756089 61.905358 
L 302.281188 59.566006 
L 296.14676 57.194153 
L 290.231827 55.138643 
L 284.109883 53.232638 
L 277.781966 51.484805 
L 271.253279 49.904532 
L 264.526526 48.502654 
L 257.607532 47.28856 
L 250.501707 46.274528 
L 243.215604 45.471391 
L 236.336869 44.927541 
L 229.318114 44.584474 
L 222.167766 44.451581 
L 214.895187 44.540417 
L 207.510988 44.862539 
L 200.654722 45.372444 
L 193.725845 46.097578 
L 186.736738 47.04733 
L 179.701027 48.232535 
L 173.277614 49.52102 
L 166.841614 51.018956 
L 160.407497 52.734289 
L 153.991356 54.673517 
L 147.610802 56.844586 
L 141.914844 59.00121 
L 136.279118 61.355007 
L 130.720372 63.910311 
L 125.256913 66.670009 
L 119.908092 69.637715 
L 115.266857 72.450643 
L 110.748269 75.429688 
L 106.36866 78.574488 
L 102.14509 81.884032 
L 98.09514 85.356298 
L 94.23691 88.988324 
L 91.032798 92.294041 
L 88.002097 95.715099 
L 85.157188 99.247239 
L 82.510344 102.885044 
L 80.073529 106.62259 
L 77.858394 110.452873 
L 75.875654 114.368092 
L 74.135503 118.359797 
L 72.844017 121.835024 
L 71.742691 125.353225 
L 70.835998 128.907827 
L 70.127579 132.491896 
L 69.620555 136.098182 
L 69.317007 139.719396 
L 69.218182 143.348018 
L 69.324601 146.976494 
L 69.635743 150.597283 
L 70.150257 154.202803 
L 70.866062 157.785861 
L 71.780036 161.339091 
L 72.888436 164.855775 
L 74.186787 168.329124 
L 75.934636 172.318373 
L 77.924659 176.23092 
L 80.146867 180.058169 
L 82.590236 183.792393 
L 85.243217 187.426803 
L 88.093848 190.955332 
L 91.129855 194.372635 
L 94.338752 197.674451 
L 97.708266 200.857169 
L 101.739804 204.345035 
L 105.946625 207.670397 
L 110.311046 210.83123 
L 114.816111 213.826381 
L 119.445383 216.655777 
L 124.78245 219.640816 
L 130.235922 222.418571 
L 135.786138 224.99193 
L 141.414998 227.363061 
L 147.105442 229.537019 
L 153.481419 231.726145 
L 159.894491 233.684151 
L 166.32684 235.416817 
L 172.762299 236.932088 
L 179.186305 238.237185 
L 186.22368 239.439723 
L 193.215701 240.406087 
L 200.148426 241.147833 
L 207.629265 241.711184 
L 215.010656 242.029694 
L 222.28053 242.114919 
L 229.427862 241.979137 
L 236.4436 241.633182 
L 243.885742 241.032274 
L 251.154784 240.209636 
L 258.243028 239.177548 
L 265.143921 237.946842 
L 271.85143 236.528353 
L 278.362433 234.933635 
L 285.147025 233.029075 
L 291.234641 231.097791 
L 297.557356 228.852331 
L 303.63561 226.44581 
L 309.466281 223.88834 
L 315.048329 221.18931 
L 320.379674 218.358109 
L 325.459276 215.402609 
L 330.286094 212.331767 
L 334.859088 209.153166 
L 339.178258 205.874389 
L 343.241523 202.502588 
L 347.050964 199.044767 
L 350.60346 195.507571 
L 353.674315 192.157581 
L 356.525675 188.74974 
L 359.348947 185.020571 
L 361.916315 181.235717 
L 364.071739 177.676421 
L 366.007667 174.078557 
L 367.845811 170.165866 
L 369.324024 166.501844 
L 370.582741 162.812471 
L 371.620923 159.101936 
L 372.43961 155.374284 
L 373.037761 151.633704 
L 373.417457 147.88419 
L 373.576617 144.129743 
L 373.515241 140.374379 
L 373.235411 136.622113 
L 372.735045 132.876925 
L 372.015183 129.142917 
L 371.075826 125.424149 
L 369.817108 121.440967 
L 368.421076 117.766906 
L 366.804508 114.120723 
L 364.816567 110.230277 
L 362.743323 106.655886 
L 360.448504 103.122879 
L 357.93419 99.635735 
L 354.979845 95.937045 
L 352.007815 92.560188 
L 348.560385 88.991502 
L 344.858091 85.499447 
L 340.899892 82.090666 
L 336.686829 78.771877 
L 332.218902 75.550303 
L 327.49715 72.433237 
L 322.886707 69.639159 
L 317.677072 66.745845 
L 312.215694 63.981091 
L 306.921799 61.535569 
L 300.98086 59.0431 
L 294.793378 56.706637 
L 288.830594 54.684351 
L 282.659757 52.813736 
L 276.285028 51.104181 
L 269.709529 49.564355 
L 262.938149 48.205089 
L 255.975256 47.037219 
L 248.826884 46.070855 
L 241.500004 45.317553 
L 234.002624 44.791036 
L 229.898268 44.606142 
L 229.898268 44.606142 
" clip-path="url(#p2c9f6e9408)" style="fill: none; stroke: #feffb3; stroke-width: 1.5; stroke-linecap: square"/>
   </g>
   <g id="patch_3">
    <path d="M 54 252 
L 54 34.56 
" style="fill: none; stroke: #ffffff; stroke-width: 0.8; stroke-linejoin: miter; stroke-linecap: square"/>
   </g>
   <g id="patch_4">
    <path d="M 388.8 252 
L 388.8 34.56 
" style="fill: none; stroke: #ffffff; stroke-width: 0.8; stroke-linejoin: miter; stroke-linecap: square"/>
   </g>
   <g id="patch_5">
    <path d="M 54 252 
L 388.8 252 
" style="fill: none; stroke: #ffffff; stroke-width: 0.8; stroke-linejoin: miter; stroke-linecap: square"/>
   </g>
   <g id="patch_6">
    <path d="M 54 34.56 
L 388.8 34.56 
" style="fill: none; stroke: #ffffff; stroke-width: 0.8; stroke-linejoin: miter; stroke-linecap: square"/>
   </g>
  </g>
 </g>
 <defs>
  <clipPath id="p2c9f6e9408">
   <rect x="54" y="34.56" width="334.8" height="217.44"/>
  </clipPath>
 </defs>
</svg>
