<?xml version="1.0" encoding="utf-8" standalone="no"?>
<!DOCTYPE svg PUBLIC "-//W3C//DTD SVG 1.1//EN"
  "http://www.w3.org/Graphics/SVG/1.1/DTD/svg11.dtd">
<svg xmlns:xlink="http://www.w3.org/1999/xlink" width="432pt" height="288pt" viewBox="0 0 432 288" xmlns="http://www.w3.org/2000/svg" version="1.1">
 <metadata>
  <rdf:RDF xmlns:dc="http://purl.org/dc/elements/1.1/" xmlns:cc="http://creativecommons.org/ns#" xmlns:rdf="http://www.w3.org/1999/02/22-rdf-syntax-ns#">
   <cc:Work>
    <dc:type rdf:resource="http://purl.org/dc/dcmitype/StillImage"/>
    <dc:date>2022-08-25T17:44:33.190909</dc:date>
    <dc:format>image/svg+xml</dc:format>
    <dc:creator>
     <cc:Agent>
      <dc:title>Matplotlib v3.5.2, https://matplotlib.org/</dc:title>
     </cc:Agent>
    </dc:creator>
   </cc:Work>
  </rdf:RDF>
 </metadata>
 <defs>
  <style type="text/css">*{stroke-linejoin: round; stroke-linecap: butt}</style>
 </defs>
 <g id="figure_1">
  <g id="patch_1">
   <path d="M 0 288 
L 432 288 
L 432 0 
L 0 0 
z
"/>
  </g>
  <g id="axes_1">
   <g id="patch_2">
    <path d="M 54 252 
L 388.8 252 
L 388.8 34.56 
L 54 34.56 
z
"/>
   </g>
   <g id="matplotlib.axis_1">
    <g id="xtick_1">
     <g id="line2d_1">
      <defs>
       <path id="m7226884698" d="M 0 0 
L 0 3.5 
" style="stroke: #ffffff; stroke-width: 0.8"/>
      </defs>
      <g>
       <use xlink:href="#m7226884698" x="54" y="252" style="fill: #ffffff; stroke: #ffffff; stroke-width: 0.8"/>
      </g>
     </g>
     <g id="text_1">
      <!-- 1.2 -->
      <g style="fill: #ffffff" transform="translate(46.048438 266.598437)scale(0.1 -0.1)">
       <defs>
        <path id="DejaVuSans-31" d="M 794 531 
L 1825 531 
L 1825 4091 
L 703 3866 
L 703 4441 
L 1819 4666 
L 2450 4666 
L 2450 531 
L 3481 531 
L 3481 0 
L 794 0 
L 794 531 
z
" transform="scale(0.015625)"/>
        <path id="DejaVuSans-2e" d="M 684 794 
L 1344 794 
L 1344 0 
L 684 0 
L 684 794 
z
" transform="scale(0.015625)"/>
        <path id="DejaVuSans-32" d="M 1228 531 
L 3431 531 
L 3431 0 
L 469 0 
L 469 531 
Q 828 903 1448 1529 
Q 2069 2156 2228 2338 
Q 2531 2678 2651 2914 
Q 2772 3150 2772 3378 
Q 2772 3750 2511 3984 
Q 2250 4219 1831 4219 
Q 1534 4219 1204 4116 
Q 875 4013 500 3803 
L 500 4441 
Q 881 4594 1212 4672 
Q 1544 4750 1819 4750 
Q 2544 4750 2975 4387 
Q 3406 4025 3406 3419 
Q 3406 3131 3298 2873 
Q 3191 2616 2906 2266 
Q 2828 2175 2409 1742 
Q 1991 1309 1228 531 
z
" transform="scale(0.015625)"/>
       </defs>
       <use xlink:href="#DejaVuSans-31"/>
       <use xlink:href="#DejaVuSans-2e" x="63.623047"/>
       <use xlink:href="#DejaVuSans-32" x="95.410156"/>
      </g>
     </g>
    </g>
    <g id="xtick_2">
     <g id="line2d_2">
      <g>
       <use xlink:href="#m7226884698" x="120.96" y="252" style="fill: #ffffff; stroke: #ffffff; stroke-width: 0.8"/>
      </g>
     </g>
     <g id="text_2">
      <!-- 1.3 -->
      <g style="fill: #ffffff" transform="translate(113.008438 266.598437)scale(0.1 -0.1)">
       <defs>
        <path id="DejaVuSans-33" d="M 2597 2516 
Q 3050 2419 3304 2112 
Q 3559 1806 3559 1356 
Q 3559 666 3084 287 
Q 2609 -91 1734 -91 
Q 1441 -91 1130 -33 
Q 819 25 488 141 
L 488 750 
Q 750 597 1062 519 
Q 1375 441 1716 441 
Q 2309 441 2620 675 
Q 2931 909 2931 1356 
Q 2931 1769 2642 2001 
Q 2353 2234 1838 2234 
L 1294 2234 
L 1294 2753 
L 1863 2753 
Q 2328 2753 2575 2939 
Q 2822 3125 2822 3475 
Q 2822 3834 2567 4026 
Q 2313 4219 1838 4219 
Q 1578 4219 1281 4162 
Q 984 4106 628 3988 
L 628 4550 
Q 988 4650 1302 4700 
Q 1616 4750 1894 4750 
Q 2613 4750 3031 4423 
Q 3450 4097 3450 3541 
Q 3450 3153 3228 2886 
Q 3006 2619 2597 2516 
z
" transform="scale(0.015625)"/>
       </defs>
       <use xlink:href="#DejaVuSans-31"/>
       <use xlink:href="#DejaVuSans-2e" x="63.623047"/>
       <use xlink:href="#DejaVuSans-33" x="95.410156"/>
      </g>
     </g>
    </g>
    <g id="xtick_3">
     <g id="line2d_3">
      <g>
       <use xlink:href="#m7226884698" x="187.92" y="252" style="fill: #ffffff; stroke: #ffffff; stroke-width: 0.8"/>
      </g>
     </g>
     <g id="text_3">
      <!-- 1.4 -->
      <g style="fill: #ffffff" transform="translate(179.968438 266.598437)scale(0.1 -0.1)">
       <defs>
        <path id="DejaVuSans-34" d="M 2419 4116 
L 825 1625 
L 2419 1625 
L 2419 4116 
z
M 2253 4666 
L 3047 4666 
L 3047 1625 
L 3713 1625 
L 3713 1100 
L 3047 1100 
L 3047 0 
L 2419 0 
L 2419 1100 
L 313 1100 
L 313 1709 
L 2253 4666 
z
" transform="scale(0.015625)"/>
       </defs>
       <use xlink:href="#DejaVuSans-31"/>
       <use xlink:href="#DejaVuSans-2e" x="63.623047"/>
       <use xlink:href="#DejaVuSans-34" x="95.410156"/>
      </g>
     </g>
    </g>
    <g id="xtick_4">
     <g id="line2d_4">
      <g>
       <use xlink:href="#m7226884698" x="254.88" y="252" style="fill: #ffffff; stroke: #ffffff; stroke-width: 0.8"/>
      </g>
     </g>
     <g id="text_4">
      <!-- 1.5 -->
      <g style="fill: #ffffff" transform="translate(246.928438 266.598437)scale(0.1 -0.1)">
       <defs>
        <path id="DejaVuSans-35" d="M 691 4666 
L 3169 4666 
L 3169 4134 
L 1269 4134 
L 1269 2991 
Q 1406 3038 1543 3061 
Q 1681 3084 1819 3084 
Q 2600 3084 3056 2656 
Q 3513 2228 3513 1497 
Q 3513 744 3044 326 
Q 2575 -91 1722 -91 
Q 1428 -91 1123 -41 
Q 819 9 494 109 
L 494 744 
Q 775 591 1075 516 
Q 1375 441 1709 441 
Q 2250 441 2565 725 
Q 2881 1009 2881 1497 
Q 2881 1984 2565 2268 
Q 2250 2553 1709 2553 
Q 1456 2553 1204 2497 
Q 953 2441 691 2322 
L 691 4666 
z
" transform="scale(0.015625)"/>
       </defs>
       <use xlink:href="#DejaVuSans-31"/>
       <use xlink:href="#DejaVuSans-2e" x="63.623047"/>
       <use xlink:href="#DejaVuSans-35" x="95.410156"/>
      </g>
     </g>
    </g>
    <g id="xtick_5">
     <g id="line2d_5">
      <g>
       <use xlink:href="#m7226884698" x="321.84" y="252" style="fill: #ffffff; stroke: #ffffff; stroke-width: 0.8"/>
      </g>
     </g>
     <g id="text_5">
      <!-- 1.6 -->
      <g style="fill: #ffffff" transform="translate(313.888438 266.598437)scale(0.1 -0.1)">
       <defs>
        <path id="DejaVuSans-36" d="M 2113 2584 
Q 1688 2584 1439 2293 
Q 1191 2003 1191 1497 
Q 1191 994 1439 701 
Q 1688 409 2113 409 
Q 2538 409 2786 701 
Q 3034 994 3034 1497 
Q 3034 2003 2786 2293 
Q 2538 2584 2113 2584 
z
M 3366 4563 
L 3366 3988 
Q 3128 4100 2886 4159 
Q 2644 4219 2406 4219 
Q 1781 4219 1451 3797 
Q 1122 3375 1075 2522 
Q 1259 2794 1537 2939 
Q 1816 3084 2150 3084 
Q 2853 3084 3261 2657 
Q 3669 2231 3669 1497 
Q 3669 778 3244 343 
Q 2819 -91 2113 -91 
Q 1303 -91 875 529 
Q 447 1150 447 2328 
Q 447 3434 972 4092 
Q 1497 4750 2381 4750 
Q 2619 4750 2861 4703 
Q 3103 4656 3366 4563 
z
" transform="scale(0.015625)"/>
       </defs>
       <use xlink:href="#DejaVuSans-31"/>
       <use xlink:href="#DejaVuSans-2e" x="63.623047"/>
       <use xlink:href="#DejaVuSans-36" x="95.410156"/>
      </g>
     </g>
    </g>
    <g id="xtick_6">
     <g id="line2d_6">
      <g>
       <use xlink:href="#m7226884698" x="388.8" y="252" style="fill: #ffffff; stroke: #ffffff; stroke-width: 0.8"/>
      </g>
     </g>
     <g id="text_6">
      <!-- 1.7 -->
      <g style="fill: #ffffff" transform="translate(380.848438 266.598437)scale(0.1 -0.1)">
       <defs>
        <path id="DejaVuSans-37" d="M 525 4666 
L 3525 4666 
L 3525 4397 
L 1831 0 
L 1172 0 
L 2766 4134 
L 525 4134 
L 525 4666 
z
" transform="scale(0.015625)"/>
       </defs>
       <use xlink:href="#DejaVuSans-31"/>
       <use xlink:href="#DejaVuSans-2e" x="63.623047"/>
       <use xlink:href="#DejaVuSans-37" x="95.410156"/>
      </g>
     </g>
    </g>
   </g>
   <g id="matplotlib.axis_2">
    <g id="ytick_1">
     <g id="line2d_7">
      <defs>
       <path id="m9a4ab1ac9f" d="M 0 0 
L -3.5 0 
" style="stroke: #ffffff; stroke-width: 0.8"/>
      </defs>
      <g>
       <use xlink:href="#m9a4ab1ac9f" x="54" y="241.128" style="fill: #ffffff; stroke: #ffffff; stroke-width: 0.8"/>
      </g>
     </g>
     <g id="text_7">
      <!-- 0.8 -->
      <g style="fill: #ffffff" transform="translate(31.096875 244.927219)scale(0.1 -0.1)">
       <defs>
        <path id="DejaVuSans-30" d="M 2034 4250 
Q 1547 4250 1301 3770 
Q 1056 3291 1056 2328 
Q 1056 1369 1301 889 
Q 1547 409 2034 409 
Q 2525 409 2770 889 
Q 3016 1369 3016 2328 
Q 3016 3291 2770 3770 
Q 2525 4250 2034 4250 
z
M 2034 4750 
Q 2819 4750 3233 4129 
Q 3647 3509 3647 2328 
Q 3647 1150 3233 529 
Q 2819 -91 2034 -91 
Q 1250 -91 836 529 
Q 422 1150 422 2328 
Q 422 3509 836 4129 
Q 1250 4750 2034 4750 
z
" transform="scale(0.015625)"/>
        <path id="DejaVuSans-38" d="M 2034 2216 
Q 1584 2216 1326 1975 
Q 1069 1734 1069 1313 
Q 1069 891 1326 650 
Q 1584 409 2034 409 
Q 2484 409 2743 651 
Q 3003 894 3003 1313 
Q 3003 1734 2745 1975 
Q 2488 2216 2034 2216 
z
M 1403 2484 
Q 997 2584 770 2862 
Q 544 3141 544 3541 
Q 544 4100 942 4425 
Q 1341 4750 2034 4750 
Q 2731 4750 3128 4425 
Q 3525 4100 3525 3541 
Q 3525 3141 3298 2862 
Q 3072 2584 2669 2484 
Q 3125 2378 3379 2068 
Q 3634 1759 3634 1313 
Q 3634 634 3220 271 
Q 2806 -91 2034 -91 
Q 1263 -91 848 271 
Q 434 634 434 1313 
Q 434 1759 690 2068 
Q 947 2378 1403 2484 
z
M 1172 3481 
Q 1172 3119 1398 2916 
Q 1625 2713 2034 2713 
Q 2441 2713 2670 2916 
Q 2900 3119 2900 3481 
Q 2900 3844 2670 4047 
Q 2441 4250 2034 4250 
Q 1625 4250 1398 4047 
Q 1172 3844 1172 3481 
z
" transform="scale(0.015625)"/>
       </defs>
       <use xlink:href="#DejaVuSans-30"/>
       <use xlink:href="#DejaVuSans-2e" x="63.623047"/>
       <use xlink:href="#DejaVuSans-38" x="95.410156"/>
      </g>
     </g>
    </g>
    <g id="ytick_2">
     <g id="line2d_8">
      <g>
       <use xlink:href="#m9a4ab1ac9f" x="54" y="197.64" style="fill: #ffffff; stroke: #ffffff; stroke-width: 0.8"/>
      </g>
     </g>
     <g id="text_8">
      <!-- 1.0 -->
      <g style="fill: #ffffff" transform="translate(31.096875 201.439219)scale(0.1 -0.1)">
       <use xlink:href="#DejaVuSans-31"/>
       <use xlink:href="#DejaVuSans-2e" x="63.623047"/>
       <use xlink:href="#DejaVuSans-30" x="95.410156"/>
      </g>
     </g>
    </g>
    <g id="ytick_3">
     <g id="line2d_9">
      <g>
       <use xlink:href="#m9a4ab1ac9f" x="54" y="154.152" style="fill: #ffffff; stroke: #ffffff; stroke-width: 0.8"/>
      </g>
     </g>
     <g id="text_9">
      <!-- 1.2 -->
      <g style="fill: #ffffff" transform="translate(31.096875 157.951219)scale(0.1 -0.1)">
       <use xlink:href="#DejaVuSans-31"/>
       <use xlink:href="#DejaVuSans-2e" x="63.623047"/>
       <use xlink:href="#DejaVuSans-32" x="95.410156"/>
      </g>
     </g>
    </g>
    <g id="ytick_4">
     <g id="line2d_10">
      <g>
       <use xlink:href="#m9a4ab1ac9f" x="54" y="110.664" style="fill: #ffffff; stroke: #ffffff; stroke-width: 0.8"/>
      </g>
     </g>
     <g id="text_10">
      <!-- 1.4 -->
      <g style="fill: #ffffff" transform="translate(31.096875 114.463219)scale(0.1 -0.1)">
       <use xlink:href="#DejaVuSans-31"/>
       <use xlink:href="#DejaVuSans-2e" x="63.623047"/>
       <use xlink:href="#DejaVuSans-34" x="95.410156"/>
      </g>
     </g>
    </g>
    <g id="ytick_5">
     <g id="line2d_11">
      <g>
       <use xlink:href="#m9a4ab1ac9f" x="54" y="67.176" style="fill: #ffffff; stroke: #ffffff; stroke-width: 0.8"/>
      </g>
     </g>
     <g id="text_11">
      <!-- 1.6 -->
      <g style="fill: #ffffff" transform="translate(31.096875 70.975219)scale(0.1 -0.1)">
       <use xlink:href="#DejaVuSans-31"/>
       <use xlink:href="#DejaVuSans-2e" x="63.623047"/>
       <use xlink:href="#DejaVuSans-36" x="95.410156"/>
      </g>
     </g>
    </g>
   </g>
   <g id="line2d_12">
    <path d="M -1 50.736171 
L 8.005176 58.310971 
L 25.046496 72.398909 
L 57.736368 98.48736 
L 67.244688 105.82596 
L 76.23072 112.65575 
L 90.955224 123.588634 
L 100.13544 130.2336 
L 110.293272 137.422166 
L 122.942016 146.098022 
L 134.405568 153.667109 
L 144.737496 160.216402 
L 154.17216 165.92855 
L 161.06904 169.925098 
L 170.289432 174.976229 
L 177.186312 178.511803 
L 183.781872 181.649462 
L 189.788184 184.269614 
L 194.689656 186.198307 
L 200.94372 188.333568 
L 205.075152 189.499046 
L 210.693096 190.688443 
L 220.000536 191.338589 
L 226.462176 189.879566 
L 229.890528 188.313998 
L 231.932808 186.885418 
L 233.198352 185.598173 
L 233.961696 184.434869 
L 234.376848 183.375936 
L 234.537552 182.410502 
L 234.49068 181.527696 
L 234.2898 180.718819 
L 233.948304 179.977349 
L 232.9506 178.679232 
L 231.618096 177.605078 
L 230.044536 176.733144 
L 228.270096 176.052557 
L 226.348344 175.552445 
L 224.306064 175.228459 
L 222.176736 175.0806 
L 219.987144 175.113216 
L 217.764072 175.328482 
L 215.541 175.739443 
L 213.358104 176.359147 
L 211.25556 177.211512 
L 209.320416 178.331328 
L 208.449936 179.007566 
L 207.666504 179.770781 
L 207.016992 180.634018 
L 206.53488 181.614672 
L 206.313912 182.736662 
L 206.488008 184.028256 
L 207.358488 185.541638 
L 209.635128 187.328995 
L 215.554392 189.188107 
L 224.091792 188.901086 
L 229.555728 187.892165 
L 233.392536 186.809314 
L 236.278512 185.756904 
L 238.535064 184.754506 
L 240.342984 183.804293 
L 242.974512 182.056075 
L 244.6686 180.490507 
L 245.679696 179.090194 
L 246.161808 177.835565 
L 246.201984 176.717923 
L 245.87388 175.728571 
L 245.224368 174.86316 
L 244.286928 174.117341 
L 243.09504 173.491114 
L 241.668792 172.982304 
L 240.028272 172.590912 
L 238.180176 172.323461 
L 235.066536 172.160381 
L 231.557832 172.306066 
L 227.687544 172.799654 
L 224.928792 173.354126 
L 222.042816 174.117341 
L 219.063096 175.132786 
L 216.0432 176.465693 
L 214.556688 177.285442 
L 213.117048 178.231306 
L 211.79124 179.34025 
L 210.679704 180.664459 
L 210.063672 182.288736 
L 210.75336 184.367462 
L 216.016416 186.785395 
L 222.9066 187.296379 
L 228.270096 187.072416 
L 232.441704 186.58535 
L 235.72944 185.985216 
L 238.347576 185.33507 
L 240.423336 184.665355 
L 242.037072 183.993466 
L 243.255744 183.330274 
L 244.119528 182.680128 
L 244.661904 182.053901 
L 244.909656 181.451592 
L 244.882872 180.87755 
L 244.594944 180.336125 
L 244.059264 179.831664 
L 243.275832 179.366342 
L 242.25804 178.944509 
L 241.005888 178.570512 
L 237.8052 177.99647 
L 233.640288 177.705101 
L 231.189552 177.696403 
L 228.470976 177.805123 
L 225.491256 178.059528 
L 222.230304 178.511803 
L 218.734992 179.238053 
L 215.125848 180.390485 
L 212.132736 182.288736 
L 213.59916 185.148072 
L 218.326536 186.637536 
L 222.899904 187.363786 
L 226.971072 187.696469 
L 230.54004 187.794317 
L 233.673768 187.737782 
L 238.782816 187.3116 
L 242.566056 186.617966 
L 244.019088 186.202656 
L 245.184192 185.752555 
L 246.088152 185.274187 
L 246.717576 184.774075 
L 247.085856 184.254394 
L 247.192992 183.72384 
L 247.025592 183.182414 
L 246.590352 182.63664 
L 245.867184 182.088691 
L 244.849392 181.547266 
L 243.510192 181.018886 
L 241.836192 180.507902 
L 239.787216 180.025186 
L 237.323088 179.588131 
L 234.383544 179.216309 
L 230.87484 178.948858 
L 226.68984 178.85101 
L 221.661144 179.064101 
L 215.755272 179.95343 
L 211.275648 182.423549 
L 212.300136 184.560984 
L 214.77096 186.002611 
L 217.563192 186.989789 
L 220.368816 187.666027 
L 223.060608 188.109605 
L 225.605088 188.370533 
L 227.96208 188.483602 
L 230.131584 188.468381 
L 232.100208 188.342266 
L 233.85456 188.116128 
L 235.387944 187.80084 
L 236.686968 187.405099 
L 237.744936 186.928906 
L 238.535064 186.383131 
L 239.050656 185.76995 
L 239.251536 185.091538 
L 239.11092 184.350067 
L 238.581936 183.554237 
L 237.590928 182.704046 
L 236.057544 181.812542 
L 233.834472 180.890597 
L 230.70744 179.977349 
L 226.28808 179.161949 
L 219.92688 178.74229 
L 211.972032 179.838187 
L 209.019096 181.799496 
L 208.697688 183.449866 
L 209.521296 184.752331 
L 210.92076 185.767776 
L 212.634936 186.541862 
L 214.529904 187.11373 
L 216.505224 187.500773 
L 218.507328 187.72691 
L 220.49604 187.798666 
L 222.424488 187.724736 
L 224.265888 187.511645 
L 225.98676 187.163741 
L 227.533536 186.676675 
L 228.872736 186.048274 
L 229.944096 185.278536 
L 230.653872 184.35659 
L 230.881536 183.275914 
L 230.419512 182.023459 
L 228.919608 180.603576 
L 225.638568 179.072798 
L 219.076488 177.866006 
L 211.08816 178.642267 
L 206.90316 180.064325 
L 204.72696 181.42115 
L 203.662296 182.625768 
L 203.300712 183.682526 
L 203.42124 184.597949 
L 203.903352 185.38943 
L 204.653304 186.06132 
L 205.624224 186.622315 
L 206.76924 187.078939 
L 208.061568 187.433366 
L 209.467728 187.687771 
L 212.547888 187.900862 
L 215.862408 187.713864 
L 217.563192 187.461634 
L 219.263976 187.09416 
L 220.937976 186.607094 
L 222.565104 185.98739 
L 224.085096 185.219827 
L 225.437688 184.282661 
L 226.509048 183.14545 
L 227.098296 181.764706 
L 226.763496 180.077371 
L 224.373024 178.057354 
L 217.074384 176.400461 
L 210.298032 176.557018 
L 205.617528 177.250651 
L 202.376664 178.083446 
L 200.1402 178.933637 
L 198.660384 179.757734 
L 197.783208 180.53617 
L 197.408232 181.253722 
L 197.455104 181.906042 
L 197.883648 182.488781 
L 198.653688 182.995416 
L 199.725048 183.421598 
L 201.091032 183.760805 
L 202.724856 184.004338 
L 204.613128 184.145674 
L 206.742456 184.169592 
L 209.092752 184.058698 
L 211.664016 183.795595 
L 214.409376 183.34332 
L 217.302048 182.651861 
L 220.208112 181.647288 
L 222.83964 180.186091 
L 224.165448 178.042133 
L 220.46256 175.432853 
L 214.516512 174.406536 
L 209.420856 174.171701 
L 205.289424 174.29999 
L 201.968208 174.621802 
L 199.323288 175.054507 
L 197.274312 175.556794 
L 195.75432 176.096045 
L 194.709744 176.659214 
L 194.1138 177.226733 
L 193.9464 177.792077 
L 194.194152 178.340026 
L 194.843664 178.861882 
L 195.901632 179.348947 
L 197.374752 179.786002 
L 199.276416 180.159998 
L 201.633408 180.444845 
L 204.465816 180.616622 
L 207.827208 180.629669 
L 211.751064 180.403531 
L 216.250776 179.799048 
L 221.051808 178.496582 
L 223.823952 175.926442 
L 220.690224 173.745518 
L 216.337824 172.588738 
L 212.206392 172.029917 
L 208.557072 171.836395 
L 205.423344 171.888581 
L 202.805208 172.116893 
L 200.689272 172.477843 
L 199.06884 172.938816 
L 197.937216 173.482416 
L 197.307792 174.084725 
L 197.19396 174.732696 
L 197.622504 175.40676 
L 198.6336 176.09387 
L 200.300904 176.76576 
L 202.704768 177.391987 
L 205.985808 177.911669 
L 210.338208 178.218259 
L 215.949456 178.057354 
L 222.317352 176.767934 
L 224.158752 174.15648 
L 222.30396 172.23431 
L 219.52512 170.931845 
L 216.565488 170.049038 
L 213.66612 169.466299 
L 210.934152 169.116221 
L 208.40976 168.953141 
L 206.126424 168.946618 
L 204.097536 169.074907 
L 202.343184 169.322789 
L 200.883456 169.67939 
L 199.745136 170.13384 
L 198.955008 170.679614 
L 198.546552 171.31019 
L 198.580032 172.019045 
L 199.109016 172.799654 
L 200.247336 173.636798 
L 202.128912 174.51743 
L 204.9948 175.398062 
L 209.233368 176.180846 
L 215.47404 176.552669 
L 223.248096 175.430678 
L 226.180944 173.367173 
L 226.32156 171.612432 
L 225.236808 170.231688 
L 223.549416 169.166232 
L 221.547312 168.368227 
L 219.3912 167.800709 
L 217.18152 167.437584 
L 214.985232 167.261458 
L 212.855904 167.263632 
L 210.8538 167.433235 
L 209.025792 167.770267 
L 207.43884 168.272554 
L 206.159904 168.942269 
L 205.302816 169.785936 
L 205.021584 170.810078 
L 205.56396 172.019045 
L 207.412056 173.39544 
L 211.503312 174.800102 
L 219.2238 175.430678 
L 225.504648 174.206491 
L 228.457584 172.630051 
L 229.482072 171.179726 
L 229.36824 169.93597 
L 228.504456 168.900955 
L 227.118384 168.070334 
L 225.370728 167.439758 
L 223.361928 167.00053 
L 221.16564 166.756997 
L 218.85552 166.713509 
L 216.51192 166.876589 
L 214.208496 167.263632 
L 212.052384 167.894208 
L 210.224376 168.803107 
L 208.999008 170.033818 
L 208.972224 171.634176 
L 211.55688 173.541125 
L 218.828736 174.73487 
L 225.236808 174.280421 
L 229.415112 173.30629 
L 231.999768 172.21909 
L 233.41932 171.14711 
L 233.968392 170.142538 
L 233.807688 169.233638 
L 233.05104 168.433459 
L 231.792192 167.76157 
L 230.091408 167.226667 
L 227.988864 166.848322 
L 225.544824 166.648277 
L 222.792768 166.652626 
L 219.799656 166.909205 
L 216.67932 167.476723 
L 213.652728 168.457378 
L 211.315824 170.018597 
L 211.536792 172.28867 
L 217.389096 174.058632 
L 223.422192 174.380443 
L 228.169656 174.089074 
L 231.785496 173.530253 
L 234.477288 172.838794 
L 236.39904 172.088626 
L 237.651192 171.314539 
L 238.314096 170.542627 
L 238.434624 169.794634 
L 238.03956 169.08143 
L 237.148992 168.420413 
L 235.783008 167.828976 
L 233.941608 167.32669 
L 231.618096 166.935298 
L 228.805776 166.68959 
L 225.48456 166.639579 
L 221.661144 166.867891 
L 217.422576 167.52456 
L 213.237576 168.905304 
L 211.664016 171.414562 
L 215.7084 173.325859 
L 220.589784 174.134736 
L 224.962272 174.334781 
L 228.63168 174.178224 
L 231.618096 173.797704 
L 233.955 173.264976 
L 235.66248 172.625702 
L 236.774016 171.912499 
L 237.289608 171.153634 
L 237.20256 170.368675 
L 236.492784 169.579368 
L 235.1268 168.816154 
L 233.044344 168.107299 
L 230.165064 167.50499 
L 226.375128 167.091854 
L 221.554008 167.030971 
L 215.795448 167.685466 
L 211.22208 169.766366 
L 212.29344 171.966859 
L 215.487432 173.334557 
L 219.063096 174.089074 
L 222.50484 174.417408 
L 225.625176 174.432629 
L 228.337056 174.202142 
L 230.593608 173.778134 
L 232.354656 173.191046 
L 233.566632 172.464797 
L 234.169272 171.625478 
L 234.08892 170.694835 
L 233.198352 169.696786 
L 231.330168 168.676992 
L 228.216528 167.711558 
L 223.482456 166.98096 
L 216.799848 166.985309 
L 210.82032 168.711782 
L 209.688696 170.69701 
L 210.773448 172.223438 
L 212.775552 173.319336 
L 215.166024 174.062981 
L 217.703808 174.515256 
L 220.241592 174.715301 
L 222.678936 174.689208 
L 224.942184 174.456547 
L 226.964376 174.032539 
L 228.658464 173.419358 
L 229.944096 172.625702 
L 230.694048 171.653746 
L 230.720832 170.505662 
L 229.723128 169.198848 
L 227.19204 167.789837 
L 222.17004 166.530859 
L 214.148232 166.45693 
L 209.065968 167.88551 
L 207.117432 169.433683 
L 206.923248 170.770939 
L 207.766944 171.851616 
L 209.266848 172.682237 
L 211.195296 173.273674 
L 213.411672 173.630275 
L 215.795448 173.760739 
L 218.259576 173.660717 
L 220.690224 173.32151 
L 222.993648 172.727899 
L 225.002448 171.862488 
L 226.468872 170.690486 
L 226.971072 169.179278 
L 225.564912 167.34191 
L 220.382208 165.598042 
L 212.768856 165.550205 
L 207.800424 166.519987 
L 205.021584 167.683291 
L 203.702472 168.805282 
L 203.42124 169.816378 
L 203.916744 170.686138 
L 205.02828 171.401515 
L 206.642016 171.949464 
L 208.657512 172.316938 
L 211.014504 172.488715 
L 213.63264 172.443053 
L 216.431568 172.151683 
L 219.304152 171.564595 
L 222.049512 170.618731 
L 224.265888 169.211894 
L 224.928792 167.224493 
L 221.36652 164.941373 
L 214.576776 164.171635 
L 209.14632 164.473877 
L 205.36308 165.182731 
L 202.91904 166.035096 
L 201.54636 166.920077 
L 201.070944 167.77679 
L 201.37896 168.568272 
L 202.38336 169.26408 
L 204.02388 169.835947 
L 206.26704 170.251258 
L 209.059272 170.466523 
L 212.3604 170.427384 
L 216.090072 170.040341 
L 220.013928 169.157534 
L 223.388712 167.533258 
L 223.589592 165.021826 
L 218.65464 163.267085 
L 213.271056 162.708264 
L 208.798128 162.782194 
L 205.336296 163.199678 
L 202.831992 163.80851 
L 201.198168 164.526062 
L 200.394648 165.297974 
L 200.381256 166.080758 
L 201.1446 166.83745 
L 202.691376 167.528909 
L 205.06176 168.107299 
L 208.282536 168.496517 
L 212.39388 168.585667 
L 217.328832 168.159485 
L 222.37092 166.796136 
L 223.97796 164.239042 
L 220.944672 162.332093 
L 216.873504 161.299253 
L 212.922864 160.851326 
L 209.427552 160.792618 
L 206.494704 161.014406 
L 204.164496 161.449286 
L 202.4838 162.042898 
L 201.486096 162.762624 
L 201.238344 163.571501 
L 201.807504 164.436912 
L 203.3208 165.313195 
L 205.938936 166.132944 
L 209.909664 166.772218 
L 215.487432 166.937472 
L 222.082992 165.943771 
L 224.861832 163.606291 
L 223.656552 161.679773 
L 221.045112 160.366435 
L 218.025216 159.535814 
L 214.97184 159.074842 
L 212.085864 158.918285 
L 209.467728 159.013958 
L 207.211176 159.329246 
L 205.389864 159.842405 
L 204.104232 160.53169 
L 203.461416 161.38188 
L 203.615424 162.373406 
L 204.814008 163.469304 
L 207.425448 164.599992 
L 212.085864 165.554554 
L 219.277368 165.654576 
L 225.062712 163.967242 
L 226.669752 162.055944 
L 226.18764 160.488202 
L 224.674344 159.279235 
L 222.625368 158.389906 
L 220.301856 157.781074 
L 217.857816 157.426646 
L 215.400384 157.309229 
L 213.036696 157.417949 
L 210.847104 157.748458 
L 208.938744 158.298581 
L 207.445536 159.074842 
L 206.548272 160.083763 
L 206.554968 161.329694 
L 208.014696 162.786542 
L 212.012208 164.271658 
L 219.672432 164.839176 
L 225.678744 163.712837 
L 228.618288 162.219024 
L 229.629384 160.812187 
L 229.415112 159.592349 
L 228.370536 158.585602 
L 226.736712 157.800643 
L 224.674344 157.237474 
L 222.30396 156.90479 
L 219.732696 156.811291 
L 217.067688 156.976546 
L 214.429464 157.424472 
L 212.012208 158.196384 
L 210.123936 159.346642 
L 209.407464 160.931779 
L 211.335912 162.901786 
L 217.98504 164.256437 
L 224.4132 163.978114 
L 228.73212 163.075738 
L 231.370344 161.99941 
L 232.74972 160.914384 
L 233.131392 159.888067 
L 232.702848 158.961773 
L 231.584616 158.161594 
L 229.863744 157.515797 
L 227.613888 157.048301 
L 224.902008 156.793896 
L 221.795064 156.800419 
L 218.393496 157.133102 
L 214.931664 157.900666 
L 211.931856 159.272712 
L 211.081464 161.418845 
L 215.654832 163.469304 
L 221.560704 164.062915 
L 226.435392 163.893312 
L 230.144976 163.360584 
L 232.836768 162.643032 
L 234.631296 161.834155 
L 235.635696 160.986139 
L 235.903536 160.138123 
L 235.468296 159.318374 
L 234.363456 158.557334 
L 232.589016 157.889794 
L 230.13828 157.350542 
L 226.99116 156.99829 
L 223.14096 156.92436 
L 218.65464 157.28531 
L 213.947352 158.385557 
L 211.268952 160.649107 
L 214.30224 162.764798 
L 218.942568 163.771546 
L 223.321752 164.086834 
L 227.071512 163.982462 
L 230.131584 163.606291 
L 232.488576 163.040947 
L 234.162576 162.345139 
L 235.146888 161.555832 
L 235.421424 160.705642 
L 234.9594 159.831533 
L 233.707248 158.961773 
L 231.571224 158.148547 
L 228.450888 157.459262 
L 224.172144 157.026557 
L 218.65464 157.124405 
L 212.708592 158.37251 
L 211.15512 160.799141 
L 213.404976 162.560405 
L 216.659232 163.632384 
L 220.040712 164.215123 
L 223.234704 164.447784 
L 226.134072 164.40647 
L 228.658464 164.145542 
L 230.761008 163.69979 
L 232.394832 163.099656 
L 233.506368 162.362534 
L 234.028656 161.51017 
L 233.867952 160.559957 
L 232.897032 159.537989 
L 230.915016 158.483405 
L 227.613888 157.48753 
L 222.518232 156.759106 
L 215.386992 156.946104 
L 210.331512 158.885669 
L 209.661912 160.799141 
L 210.82032 162.253814 
L 212.76216 163.310573 
L 215.0388 164.04552 
L 217.44936 164.513016 
L 219.873312 164.745677 
L 222.216912 164.773944 
L 224.426592 164.610864 
L 226.442088 164.269483 
L 228.19644 163.75415 
L 229.622688 163.071389 
L 230.633784 162.221198 
L 231.102504 161.205754 
L 230.827968 160.025054 
L 229.495464 158.694322 
L 226.529136 157.283136 
L 220.83084 156.113309 
L 212.608152 156.474259 
L 208.115136 157.935456 
L 206.220168 159.394478 
L 205.758144 160.662154 
L 206.173296 161.721086 
L 207.171 162.582149 
L 208.570464 163.251864 
L 210.271248 163.743278 
L 212.186304 164.058566 
L 214.241976 164.202077 
L 216.391392 164.167286 
L 218.574288 163.954195 
L 220.7304 163.549757 
L 222.786072 162.93875 
L 224.634168 162.099432 
L 226.107288 160.999186 
L 226.89072 159.596698 
L 226.35504 157.846306 
L 222.933384 155.865427 
L 214.93836 154.956528 
L 208.838304 155.495779 
L 204.840792 156.391632 
L 202.24944 157.350542 
L 200.6424 158.279011 
L 199.77192 159.146597 
L 199.497384 159.938078 
L 199.711656 160.642584 
L 200.34108 161.257939 
L 201.338784 161.773272 
L 202.671288 162.186408 
L 204.29172 162.48865 
L 206.186688 162.669125 
L 208.322712 162.719136 
L 210.6864 162.616939 
L 213.244272 162.342965 
L 215.956152 161.862422 
L 218.741688 161.125301 
L 221.453568 160.051147 
L 223.71012 158.509498 
L 224.292672 156.304656 
L 219.52512 153.923688 
L 213.351408 153.160474 
L 208.289232 153.125683 
L 204.29172 153.412704 
L 201.164688 153.858456 
L 198.754128 154.391184 
L 196.952904 154.969574 
L 195.700752 155.567534 
L 194.937408 156.169843 
L 194.629392 156.759106 
L 194.74992 157.328798 
L 195.2856 157.865875 
L 196.229736 158.361638 
L 197.575632 158.800867 
L 199.33668 159.170515 
L 201.51288 159.453187 
L 204.137712 159.62279 
L 207.217872 159.644534 
L 210.78684 159.457536 
L 214.851312 158.966122 
L 219.29076 157.968072 
L 223.214616 156.045902 
L 222.056208 153.184392 
L 217.91808 151.54272 
L 213.73308 150.607728 
L 209.902968 150.066302 
L 206.481312 149.770584 
L 200.762928 149.650992 
L 196.377048 149.935838 
L 193.183056 150.485962 
L 192.017952 150.833866 
L 191.127384 151.220909 
L 190.518048 151.640568 
L 190.183248 152.088494 
L 190.143072 152.560339 
L 190.39752 153.049579 
L 190.959984 153.551866 
L 191.857248 154.06285 
L 193.102704 154.571659 
L 194.743224 155.073946 
L 196.818984 155.556662 
L 199.40364 156.00024 
L 202.577544 156.376411 
L 206.488008 156.628642 
L 211.329216 156.646037 
L 217.335528 156.139402 
L 223.536024 154.249848 
L 223.683336 151.76016 
L 221.339736 150.042384 
L 218.42028 148.881254 
L 215.44056 148.094122 
L 212.581368 147.578789 
L 209.896272 147.276547 
L 207.43884 147.146083 
L 205.215768 147.161304 
L 203.247144 147.30264 
L 201.559752 147.55487 
L 200.153592 147.907123 
L 199.055448 148.352875 
L 198.292104 148.881254 
L 197.890344 149.490086 
L 197.903736 150.170674 
L 198.392544 150.916493 
L 199.423728 151.721021 
L 201.137904 152.564688 
L 203.709168 153.423576 
L 207.458928 154.223755 
L 212.916168 154.76953 
L 220.522824 154.360742 
L 225.169848 152.127634 
L 225.78588 150.125011 
L 224.928792 148.55292 
L 223.455672 147.317861 
L 221.681232 146.339381 
L 219.772872 145.571818 
L 217.810944 144.978206 
L 215.849016 144.538978 
L 213.913872 144.236736 
L 210.244464 143.995378 
L 206.983512 144.193248 
L 205.550568 144.447653 
L 204.278328 144.80208 
L 203.200272 145.25653 
L 202.343184 145.813176 
L 201.753936 146.472019 
L 201.4794 147.235234 
L 201.61332 148.111517 
L 202.269528 149.103043 
L 203.642208 150.207638 
L 206.072856 151.416605 
L 210.271248 152.634269 
L 217.58328 153.353995 
L 224.995752 151.953682 
L 228.383928 150.220685 
L 229.964184 148.668163 
L 230.613696 147.311338 
L 230.70744 146.124115 
L 230.432904 145.080403 
L 229.883832 144.160632 
L 229.147272 143.35393 
L 228.256704 142.64725 
L 227.245608 142.031894 
L 224.962272 141.059938 
L 222.444576 140.401094 
L 219.79296 140.03797 
L 217.08108 139.961866 
L 214.389288 140.179306 
L 211.79124 140.701162 
L 209.400768 141.555701 
L 208.329408 142.11887 
L 207.378576 142.786411 
L 206.581752 143.567021 
L 206.005896 144.473746 
L 205.738056 145.530504 
L 205.938936 146.761214 
L 206.916552 148.202842 
L 209.387376 149.879304 
L 215.299944 151.544894 
L 224.01144 151.164374 
L 229.40172 150.044558 
L 233.08452 148.874731 
L 235.803096 147.754915 
L 237.892248 146.700331 
L 239.532768 145.70663 
L 240.838488 144.773813 
L 242.686584 143.066909 
L 243.771336 141.549178 
L 244.293624 140.198875 
L 244.36728 139.000781 
L 244.072656 137.939674 
L 243.456624 137.011205 
L 242.572752 136.208851 
L 241.441128 135.528264 
L 240.095232 134.969443 
L 238.548456 134.530214 
L 236.820888 134.212752 
L 233.928216 133.969219 
L 230.687352 134.021405 
L 227.15856 134.39975 
L 224.654256 134.8542 
L 222.056208 135.493474 
L 219.384504 136.343664 
L 216.672624 137.446085 
L 214.00092 138.868142 
L 212.721984 139.731379 
L 211.5234 140.720731 
L 210.472128 141.873163 
L 209.702088 143.236512 
L 209.5146 144.895579 
L 210.82032 146.983003 
L 217.101168 149.22481 
L 223.897608 149.607504 
L 229.187448 149.381366 
L 233.379144 148.93344 
L 236.780712 148.387666 
L 239.586336 147.796229 
L 243.8316 146.572042 
L 246.670704 145.356552 
L 247.668408 144.765115 
L 248.411664 144.188899 
L 248.927256 143.632253 
L 249.22188 143.09735 
L 249.32232 142.582018 
L 249.22188 142.090603 
L 248.940648 141.625282 
L 248.471928 141.188227 
L 247.829112 140.77944 
L 246.034584 140.059714 
L 243.550368 139.487846 
L 240.376464 139.092106 
L 236.479392 138.915979 
L 231.818976 139.029048 
L 226.314864 139.550904 
L 223.228008 140.035795 
L 219.920184 140.742475 
L 216.458352 141.784013 
L 213.177312 143.386546 
L 212.045688 146.000174 
L 217.489536 147.976704 
L 223.027128 148.724698 
L 227.7612 148.970405 
L 231.805584 148.963882 
L 235.2942 148.809499 
L 240.938928 148.250678 
L 245.190888 147.496162 
L 248.311224 146.641622 
L 250.467336 145.730549 
L 251.210592 145.263053 
L 251.746272 144.793382 
L 252.074376 144.323712 
L 252.2016 143.856216 
L 252.13464 143.393069 
L 251.8668 142.936445 
L 251.404776 142.488518 
L 250.741872 142.053638 
L 248.813424 141.229541 
L 246.021192 140.490245 
L 242.29152 139.879238 
L 237.483792 139.45523 
L 234.604512 139.348685 
L 231.356952 139.344336 
L 227.687544 139.481323 
L 223.529328 139.83575 
L 218.828736 140.562 
L 213.867 142.040592 
L 212.146128 144.986904 
L 214.63704 146.963434 
L 217.737288 148.283294 
L 220.837536 149.229158 
L 223.797168 149.935838 
L 229.220928 150.87083 
L 234.001872 151.37964 
L 238.186872 151.592731 
L 241.829496 151.581859 
L 244.956528 151.390512 
L 247.594752 151.049131 
L 249.750864 150.577286 
L 251.424864 149.990198 
L 252.623448 149.298739 
L 253.313136 148.513781 
L 253.467144 148.087598 
L 253.480536 147.639672 
L 253.360008 147.170002 
L 253.085472 146.682936 
L 252.656928 146.176301 
L 251.29764 145.10867 
L 249.175008 143.977982 
L 246.135024 142.792934 
L 241.92324 141.577445 
L 239.251536 140.975136 
L 236.077632 140.392397 
L 232.260912 139.861843 
L 227.553624 139.446533 
L 221.53392 139.335638 
L 213.853608 140.238014 
L 210.92076 142.873387 
L 211.315824 144.87601 
L 212.567976 146.430706 
L 214.114752 147.700555 
L 215.77536 148.774709 
L 219.170232 150.50988 
L 222.518232 151.858008 
L 225.732312 152.925638 
L 230.285592 154.13243 
L 234.49068 154.9674 
L 238.34088 155.504477 
L 241.842888 155.791498 
L 244.990008 155.854555 
L 247.788936 155.719742 
L 250.232976 155.397931 
L 252.30204 154.904342 
L 253.982736 154.24115 
L 254.88 153.710597 
L 255.58308 153.106114 
L 256.08528 152.429875 
L 256.373208 151.681882 
L 256.426776 150.859958 
L 256.232592 149.961931 
L 255.75048 148.9878 
L 254.960352 147.931042 
L 253.80864 146.789482 
L 252.241776 145.556597 
L 250.172712 144.225864 
L 247.467528 142.79076 
L 243.925344 141.238238 
L 239.157792 139.566125 
L 236.09772 138.689842 
L 232.334568 137.800512 
L 227.49336 136.952496 
L 220.723704 136.369757 
L 211.38948 137.37433 
L 206.829504 139.009478 
L 204.110928 140.501117 
L 202.269528 141.836198 
L 200.937024 143.047339 
L 199.93932 144.158458 
L 198.60012 146.143685 
L 197.83008 147.883205 
L 197.441712 149.431378 
L 197.321184 150.822994 
L 197.408232 152.079797 
L 197.655984 153.221357 
L 198.26532 154.745611 
L 199.095624 156.069821 
L 200.100024 157.217904 
L 201.24504 158.207256 
L 202.497192 159.050923 
L 204.311808 159.964171 
L 206.253648 160.653456 
L 208.295928 161.131824 
L 210.411864 161.407973 
L 212.588064 161.486251 
L 214.797744 161.371008 
L 217.034208 161.060069 
L 219.270672 160.553434 
L 221.493744 159.846754 
L 223.690032 158.931331 
L 225.826056 157.796294 
L 227.881728 156.424248 
L 229.348152 155.226154 
L 230.727528 153.871502 
L 231.993072 152.342899 
L 233.097912 150.616426 
L 233.727336 149.342227 
L 234.236232 147.952786 
L 234.597816 146.435054 
L 234.75852 144.76729 
L 234.644688 142.914701 
L 234.450504 141.905779 
L 234.1224 140.8338 
L 233.633592 139.681368 
L 232.923816 138.439786 
L 231.892632 137.087309 
L 230.359248 135.591322 
L 227.941992 133.91051 
L 223.529328 132.042701 
L 213.83352 130.942454 
L 206.789328 131.151197 
L 201.238344 131.583902 
L 192.292488 132.584126 
L 181.538712 134.090986 
L 169.653312 136.000109 
L 154.580616 138.650702 
L 135.32292 142.277602 
L 111.424896 147.006922 
L 76.686048 154.145477 
L 12.042864 167.833325 
L -1 170.627984 
L -1 170.627984 
" clip-path="url(#pd97bd959e0)" style="fill: none; stroke: #8dd3c7; stroke-width: 1.5; stroke-linecap: square"/>
   </g>
   <g id="line2d_13">
    <path d="M 377.574903 289 
L 367.446456 279.583786 
L 356.304312 269.578284 
L 346.675464 261.228588 
L 335.359224 251.78343 
L 325.971432 244.248916 
L 317.373768 237.601993 
L 308.856456 231.264704 
L 299.348136 224.501016 
L 291.018312 218.85997 
L 282.956328 213.675765 
L 275.309496 209.028855 
L 268.292088 205.02448 
L 262.265688 201.796583 
L 255.221496 198.306236 
L 249.630336 195.780888 
L 242.807112 193.032446 
L 238.595328 191.55168 
L 233.432712 189.988286 
L 226.408608 188.392277 
L 214.777656 187.470331 
L 206.708976 189.185933 
L 202.41684 191.034173 
L 199.865664 192.708461 
L 198.285408 194.208797 
L 197.32788 195.55475 
L 196.805592 196.77024 
L 196.604712 197.868312 
L 196.664976 198.863752 
L 196.919424 199.766128 
L 197.347968 200.583703 
L 197.910432 201.322564 
L 198.593424 201.98793 
L 200.254032 203.113617 
L 202.229352 203.985552 
L 204.445728 204.620476 
L 206.849592 205.028611 
L 209.400768 205.215175 
L 212.05908 205.181472 
L 214.797744 204.924675 
L 217.576584 204.437174 
L 220.355424 203.706576 
L 223.080696 202.713962 
L 225.705528 201.430632 
L 226.950984 200.667417 
L 228.12948 199.814183 
L 229.220928 198.861795 
L 230.191848 197.798731 
L 231.015456 196.609334 
L 231.6114 195.274253 
L 231.892632 193.765219 
L 231.664968 192.038746 
L 230.580216 190.040472 
L 227.734416 187.698643 
L 220.335336 185.263315 
L 209.661912 185.515546 
L 202.831992 186.665803 
L 198.037656 187.911734 
L 194.435208 189.118526 
L 191.609496 190.264435 
L 189.352944 191.342938 
L 187.531632 192.356208 
L 184.880016 194.206622 
L 183.219408 195.839597 
L 182.302056 197.281224 
L 182.081088 197.934196 
L 181.99404 198.54455 
L 182.02752 199.113591 
L 182.181528 199.642405 
L 182.79756 200.582833 
L 183.795264 201.371705 
L 185.127768 202.011849 
L 186.768288 202.504785 
L 188.69004 202.849862 
L 190.86624 203.044471 
L 193.290192 203.084263 
L 195.948504 202.962061 
L 198.821088 202.668517 
L 201.901248 202.190367 
L 205.168896 201.509345 
L 208.617336 200.600663 
L 212.22648 199.429096 
L 215.949456 197.942242 
L 219.719304 196.057037 
L 221.580792 194.926349 
L 223.382016 193.632581 
L 225.042624 192.136594 
L 226.428696 190.37533 
L 227.198736 188.233546 
L 226.341648 185.528592 
L 219.766176 182.395282 
L 211.148424 181.649462 
L 204.439032 181.82124 
L 199.229544 182.321352 
L 195.111504 182.9628 
L 191.843856 183.667306 
L 189.252504 184.39573 
L 187.230312 185.126328 
L 185.71032 185.848229 
L 184.632264 186.55056 
L 183.949272 187.224624 
L 183.641256 187.870421 
L 183.674736 188.477078 
L 184.03632 189.046771 
L 184.70592 189.568627 
L 185.683536 190.040472 
L 186.955776 190.460131 
L 188.515944 190.816733 
L 190.377432 191.105928 
L 192.526848 191.319019 
L 194.977584 191.44296 
L 197.72964 191.464704 
L 200.796408 191.366856 
L 204.19128 191.123323 
L 207.920952 190.694966 
L 211.985424 190.023077 
L 216.364608 189.005458 
L 220.871016 187.45511 
L 224.61408 184.97412 
L 222.786072 181.292861 
L 216.873504 179.32068 
L 211.15512 178.305235 
L 206.06616 177.77903 
L 201.599928 177.54637 
L 197.689464 177.511579 
L 194.274504 177.61595 
L 191.30148 177.824693 
L 186.567408 178.474838 
L 184.759488 178.8858 
L 183.293064 179.34025 
L 182.174832 179.82949 
L 181.384704 180.344822 
L 180.92268 180.886248 
L 180.795456 181.44072 
L 180.996336 182.010413 
L 181.545408 182.584454 
L 182.449368 183.158496 
L 183.721608 183.726014 
L 185.388912 184.280486 
L 187.48476 184.808866 
L 190.042632 185.302454 
L 193.129488 185.739509 
L 196.805592 186.09611 
L 201.184776 186.322248 
L 206.421048 186.335294 
L 212.708592 185.961298 
L 220.087584 184.741459 
L 225.678744 181.542917 
L 224.406504 178.764034 
L 221.319648 176.852736 
L 217.824336 175.511131 
L 214.322328 174.55657 
L 210.95424 173.893378 
L 207.77364 173.456323 
L 204.820704 173.208442 
L 202.11552 173.119291 
L 199.658088 173.167128 
L 197.4618 173.34108 
L 195.546744 173.625926 
L 193.919616 174.01297 
L 192.600504 174.497861 
L 191.609496 175.071902 
L 190.96668 175.730746 
L 190.712232 176.470042 
L 190.886328 177.285442 
L 191.555928 178.174771 
L 192.787992 179.127158 
L 194.709744 180.133906 
L 197.481888 181.177618 
L 201.392352 182.210458 
L 206.916552 183.121531 
L 214.864704 183.536842 
L 224.81496 182.056075 
L 228.504456 179.496806 
L 228.912912 177.324581 
L 227.881728 175.587235 
L 226.127376 174.21084 
L 223.984656 173.132338 
L 221.620968 172.312589 
L 219.150144 171.716803 
L 216.64584 171.327586 
L 214.161624 171.129715 
L 211.744368 171.11232 
L 209.44764 171.268877 
L 207.298224 171.597211 
L 205.356384 172.097323 
L 203.682384 172.771387 
L 202.34988 173.625926 
L 201.466008 174.669638 
L 201.184776 175.913395 
L 201.753936 177.368069 
L 203.628816 179.035834 
L 207.733464 180.840586 
L 215.936064 182.240899 
L 225.913104 181.162397 
L 231.149376 179.275018 
L 233.867952 177.470266 
L 235.200456 175.854686 
L 235.649088 174.426106 
L 235.501776 173.171477 
L 234.899136 172.075579 
L 233.961696 171.127541 
L 232.74972 170.31649 
L 231.316776 169.638077 
L 229.70304 169.085779 
L 227.948688 168.659597 
L 226.073808 168.355181 
L 224.098488 168.172531 
L 222.049512 168.118171 
L 219.953664 168.192101 
L 217.831032 168.398669 
L 215.701704 168.746573 
L 213.605856 169.246685 
L 211.576968 169.914226 
L 209.675304 170.764416 
L 207.987912 171.827698 
L 206.648712 173.141035 
L 205.912152 174.758789 
L 206.327304 176.757062 
L 209.31372 179.172821 
L 218.433672 181.13413 
L 226.904112 180.831888 
L 232.756416 179.855582 
L 236.814192 178.705325 
L 239.606424 177.533323 
L 241.45452 176.396112 
L 242.552664 175.315435 
L 243.021384 174.308688 
L 242.96112 173.384568 
L 242.42544 172.547424 
L 241.467912 171.803779 
L 240.122016 171.162331 
L 238.414536 170.631778 
L 236.372256 170.216467 
L 234.015264 169.933795 
L 231.356952 169.794634 
L 228.410712 169.822901 
L 225.203328 170.04469 
L 221.76828 170.501314 
L 218.159136 171.25583 
L 214.516512 172.403914 
L 211.228776 174.119515 
L 209.574864 176.69183 
L 214.2018 179.84471 
L 221.63436 181.018886 
L 228.002256 181.20371 
L 233.171568 180.934085 
L 237.323088 180.425275 
L 240.624216 179.772955 
L 243.182088 179.038008 
L 245.090448 178.25305 
L 246.389472 177.441998 
L 247.132728 176.62225 
L 247.347 175.809024 
L 247.038984 175.015368 
L 246.228768 174.252154 
L 244.90296 173.536776 
L 243.06156 172.880107 
L 240.68448 172.306066 
L 237.744936 171.83857 
L 234.196056 171.516758 
L 229.997664 171.392818 
L 225.089496 171.564595 
L 219.464856 172.214741 
L 213.46524 173.732472 
L 209.996712 176.835341 
L 213.920568 179.455493 
L 219.35772 180.792749 
L 224.527032 181.382011 
L 229.087008 181.51465 
L 232.997472 181.340698 
L 236.271816 180.947131 
L 238.916736 180.386136 
L 240.945624 179.7012 
L 242.35848 178.914067 
L 243.148608 178.05083 
L 243.289224 177.133234 
L 242.753544 176.180846 
L 241.488 175.213238 
L 239.405544 174.2652 
L 236.39904 173.373696 
L 232.294392 172.61483 
L 226.85724 172.123416 
L 219.839832 172.216915 
L 211.884984 173.717251 
L 209.58156 176.872306 
L 211.898376 179.168472 
L 215.3736 180.688378 
L 219.076488 181.684253 
L 222.692328 182.301782 
L 226.113984 182.630117 
L 229.2678 182.72579 
L 232.120296 182.625768 
L 234.65808 182.356142 
L 236.854368 181.938658 
L 238.67568 181.384186 
L 240.095232 180.705773 
L 241.08624 179.914291 
L 241.595136 179.018438 
L 241.55496 178.022563 
L 240.892056 176.941886 
L 239.472504 175.785106 
L 237.122208 174.576139 
L 233.539848 173.364998 
L 228.243312 172.277798 
L 220.435776 171.703757 
L 210.71988 172.999699 
L 207.057168 175.469818 
L 206.876376 177.555067 
L 208.235664 179.172821 
L 210.344904 180.392659 
L 212.842512 181.281989 
L 215.541 181.884298 
L 218.306448 182.227853 
L 221.051808 182.338747 
L 223.71012 182.230027 
L 226.214424 181.908216 
L 228.49776 181.377662 
L 230.486472 180.642715 
L 232.08012 179.696851 
L 233.15148 178.533547 
L 233.506368 177.144106 
L 232.823376 175.524178 
L 230.513256 173.693333 
L 225.397512 171.829872 
L 215.755272 170.931845 
L 207.894168 172.356077 
L 204.204672 174.215189 
L 202.925736 175.919918 
L 203.073048 177.365894 
L 204.151104 178.550942 
L 205.878672 179.479411 
L 208.061568 180.162173 
L 210.579264 180.599227 
L 213.324624 180.794923 
L 216.2106 180.742738 
L 219.143448 180.429624 
L 222.022728 179.838187 
L 224.707824 178.94016 
L 227.004552 177.696403 
L 228.53124 176.048208 
L 228.558024 173.93904 
L 225.337248 171.447178 
L 216.24408 169.846819 
L 208.235664 170.305618 
L 203.006088 171.412387 
L 199.785312 172.664842 
L 198.004176 173.897726 
L 197.321184 175.043635 
L 197.522064 176.072126 
L 198.4662 176.961456 
L 200.03976 177.694229 
L 202.169088 178.25305 
L 204.79392 178.616174 
L 207.853992 178.759685 
L 211.28904 178.642267 
L 215.025408 178.216085 
L 218.929176 177.396336 
L 222.712416 176.061254 
L 225.638568 174.002098 
L 225.357336 171.053611 
L 218.045304 168.733526 
L 210.505608 168.224717 
L 204.566256 168.479122 
L 200.053152 169.070558 
L 196.685064 169.822901 
L 194.2812 170.653522 
L 192.714336 171.51241 
L 191.884032 172.366949 
L 191.743416 173.195395 
L 192.232224 173.978179 
L 193.34376 174.693557 
L 195.044544 175.324133 
L 197.347968 175.845989 
L 200.254032 176.226509 
L 203.769432 176.424379 
L 207.920952 176.378717 
L 212.701896 175.982976 
L 218.005128 175.054507 
L 223.234704 173.217139 
L 225.203328 169.972934 
L 220.141152 167.476723 
L 214.041096 166.356907 
L 208.57716 165.998131 
L 203.9904 166.082933 
L 200.254032 166.450406 
L 197.341272 167.007053 
L 195.198552 167.698512 
L 193.81248 168.481296 
L 193.162968 169.322789 
L 193.2768 170.194723 
L 194.160672 171.071006 
L 195.868152 171.916848 
L 198.472896 172.693109 
L 202.068648 173.336731 
L 206.809416 173.745518 
L 212.835816 173.715077 
L 220.034016 172.784434 
L 225.7524 170.077306 
L 224.419896 167.21797 
L 220.422384 165.397997 
L 215.956152 164.347762 
L 211.650624 163.82808 
L 207.753552 163.701965 
L 204.35868 163.878091 
L 201.532968 164.302099 
L 199.33668 164.928326 
L 197.823384 165.724157 
L 197.066736 166.665672 
L 197.173872 167.720256 
L 198.285408 168.857467 
L 200.622312 170.02512 
L 204.505992 171.123192 
L 210.431952 171.92772 
L 218.781864 171.812477 
L 226.2546 169.548926 
L 227.667456 166.954867 
L 226.314864 164.939198 
L 223.81056 163.460606 
L 220.824144 162.421243 
L 217.65024 161.749354 
L 214.483032 161.390578 
L 211.436352 161.314474 
L 208.603944 161.494949 
L 206.079552 161.918957 
L 203.950224 162.575626 
L 202.34988 163.458432 
L 201.41244 164.565202 
L 201.385656 165.891586 
L 202.624416 167.41584 
L 205.784928 169.068384 
L 212.065776 170.53393 
L 222.096384 170.516534 
L 228.444192 168.620458 
L 230.881536 166.578696 
L 231.122592 164.800037 
L 230.07132 163.33884 
L 228.19644 162.192931 
L 225.78588 161.344915 
L 223.013736 160.788269 
L 220.034016 160.516469 
L 216.960552 160.533864 
L 213.913872 160.851326 
L 211.041288 161.481902 
L 208.530288 162.456034 
L 206.688888 163.812859 
L 206.06616 165.591518 
L 207.820512 167.778965 
L 214.30224 169.851168 
L 223.817256 169.801157 
L 230.024448 168.481296 
L 233.506368 166.920077 
L 235.153584 165.406694 
L 235.508472 164.034648 
L 234.885744 162.838728 
L 233.492976 161.83633 
L 231.484176 161.042674 
L 228.959784 160.475155 
L 226.013544 160.15117 
L 222.745896 160.09681 
L 219.243888 160.355563 
L 215.654832 160.979616 
L 212.219784 162.05377 
L 209.44764 163.704139 
L 208.624032 166.078584 
L 213.070176 168.822677 
L 221.560704 169.677216 
L 228.350448 169.19015 
L 233.071128 168.19645 
L 236.1312 167.022274 
L 237.845376 165.806784 
L 238.44132 164.626085 
L 238.052952 163.528013 
L 236.8008 162.549533 
L 234.745128 161.72761 
L 231.952896 161.099208 
L 228.457584 160.720862 
L 224.326152 160.662154 
L 219.665736 161.03615 
L 214.764264 162.029851 
L 210.539088 163.954195 
L 210.298032 166.985309 
L 216.458352 169.068384 
L 223.187832 169.659821 
L 228.785688 169.455427 
L 233.104608 168.827026 
L 236.238336 167.957266 
L 238.280616 166.950518 
L 239.285016 165.878539 
L 239.305104 164.791339 
L 238.354272 163.734581 
L 236.412432 162.762624 
L 233.4528 161.932003 
L 229.428504 161.334043 
L 224.285976 161.114429 
L 218.11896 161.540611 
L 211.818024 163.134446 
L 209.809224 166.222094 
L 213.592464 168.498691 
L 218.68812 169.67939 
L 223.623072 170.131666 
L 227.99556 170.096875 
L 231.664968 169.707658 
L 234.571032 169.057512 
L 236.673576 168.205147 
L 237.919032 167.1984 
L 238.233744 166.078584 
L 237.523968 164.889187 
L 235.635696 163.68457 
L 232.361352 162.549533 
L 227.39292 161.642808 
L 220.422384 161.32752 
L 212.172912 162.460382 
L 208.704384 165.274056 
L 210.210984 167.574571 
L 213.471936 169.105349 
L 217.24848 170.035992 
L 221.0652 170.501314 
L 224.674344 170.590464 
L 227.948688 170.362152 
L 230.767704 169.857691 
L 233.037648 169.109698 
L 234.651384 168.137741 
L 235.454904 166.965739 
L 235.26072 165.619786 
L 233.767512 164.141194 
L 230.493168 162.619114 
L 224.674344 161.316648 
L 215.681616 161.081813 
L 208.449936 163.084435 
L 206.441136 165.363206 
L 207.050472 167.215795 
L 208.938744 168.616109 
L 211.496616 169.620682 
L 214.40268 170.273002 
L 217.462752 170.605685 
L 220.522824 170.644824 
L 223.482456 170.399117 
L 226.22112 169.877261 
L 228.604896 169.08143 
L 230.47308 168.002928 
L 231.598008 166.633056 
L 231.591312 164.967466 
L 229.763304 163.038773 
L 224.761392 161.070941 
L 215.186112 160.253366 
L 207.686592 161.553658 
L 204.010488 163.310573 
L 202.744944 164.963117 
L 203.012784 166.378651 
L 204.311808 167.526734 
L 206.354088 168.400843 
L 208.932048 168.994454 
L 211.898376 169.303219 
L 215.112456 169.309742 
L 218.447064 168.994454 
L 221.741496 168.324739 
L 224.761392 167.25276 
L 227.12508 165.706762 
L 228.022344 163.614989 
L 225.605088 161.047022 
L 217.295352 159.244445 
L 209.266848 159.481454 
L 203.863176 160.501248 
L 200.568744 161.736307 
L 198.847872 162.986587 
L 198.36576 164.160763 
L 198.90144 165.210998 
L 200.300904 166.100328 
L 202.45032 166.79831 
L 205.255944 167.274504 
L 208.650816 167.483246 
L 212.541192 167.368003 
L 216.786456 166.841798 
L 221.118768 165.771994 
L 224.861832 163.949846 
L 225.926496 161.157917 
L 220.208112 158.485579 
L 212.82912 157.637563 
L 206.73576 157.741934 
L 202.102128 158.296406 
L 198.73404 159.083539 
L 196.484184 159.985915 
L 195.238728 160.938302 
L 194.903928 161.89069 
L 195.439608 162.806112 
L 196.82568 163.647605 
L 199.042056 164.376029 
L 202.108824 164.939198 
L 206.039376 165.269707 
L 210.847104 165.254486 
L 216.458352 164.693491 
L 222.344136 163.21055 
L 225.692136 160.270762 
L 221.9022 157.520146 
L 216.103464 156.150274 
L 210.626136 155.647987 
L 205.938936 155.669731 
L 202.11552 156.032856 
L 199.16928 156.630816 
L 197.073432 157.391856 
L 195.848064 158.270314 
L 195.499872 159.222701 
L 196.075728 160.209878 
L 197.649288 161.186184 
L 200.314296 162.095083 
L 204.218064 162.847426 
L 209.568168 163.280131 
L 216.465048 163.04747 
L 223.890912 161.379706 
L 225.839448 158.237698 
L 223.020432 155.92631 
L 218.95596 154.47816 
L 214.730784 153.641016 
L 210.733272 153.243101 
L 207.110736 153.184392 
L 203.95692 153.401832 
L 201.332088 153.849758 
L 199.289808 154.491206 
L 197.89704 155.304432 
L 197.247528 156.261168 
L 197.441712 157.341845 
L 198.653688 158.509498 
L 201.131208 159.71629 
L 205.26264 160.855675 
L 211.637232 161.655854 
L 220.542912 161.314474 
L 226.870632 158.779123 
L 227.707632 156.280738 
L 226.2546 154.354219 
L 223.830648 152.923464 
L 220.978152 151.897147 
L 217.964952 151.203514 
L 214.93836 150.80125 
L 212.005512 150.659914 
L 209.24676 150.755587 
L 206.729064 151.07305 
L 204.532776 151.607952 
L 202.75164 152.351597 
L 201.486096 153.306158 
L 200.903544 154.467288 
L 201.24504 155.834986 
L 202.905648 157.387507 
L 206.621928 159.0444 
L 213.739776 160.396877 
L 224.024832 159.838056 
L 229.63608 157.90284 
L 232.006464 155.969798 
L 232.58232 154.278115 
L 232.066728 152.843011 
L 230.821272 151.660138 
L 229.060224 150.712099 
L 226.937592 149.990198 
L 224.54712 149.487912 
L 221.975856 149.200891 
L 219.29076 149.133485 
L 216.558792 149.292216 
L 213.860304 149.690131 
L 211.295736 150.344626 
L 208.985616 151.283966 
L 207.144216 152.551642 
L 206.159904 154.197662 
L 206.8362 156.274214 
L 211.114944 158.642136 
L 221.105376 159.668453 
L 228.73212 158.887843 
L 233.727336 157.659307 
L 236.9682 156.352493 
L 238.977 155.080469 
L 240.061752 153.886723 
L 240.409944 152.790826 
L 240.142104 151.799299 
L 239.351976 150.92519 
L 238.10652 150.170674 
L 236.445912 149.544446 
L 234.417024 149.059555 
L 232.04664 148.722523 
L 229.374936 148.55292 
L 226.422 148.57249 
L 223.221312 148.80515 
L 219.839832 149.296565 
L 216.351216 150.10979 
L 212.96304 151.342675 
L 210.137328 153.162648 
L 209.41416 155.808893 
L 215.366904 158.679101 
L 223.094088 159.522768 
L 229.421808 159.457536 
L 234.417024 158.99004 
L 238.327488 158.324674 
L 241.340688 157.550587 
L 243.583848 156.717792 
L 245.157408 155.861078 
L 246.10824 155.00219 
L 246.496608 154.154174 
L 246.3426 153.332251 
L 245.673 152.553816 
L 244.494504 151.825392 
L 242.807112 151.168723 
L 240.610824 150.596856 
L 237.885552 150.135883 
L 234.611208 149.814072 
L 230.761008 149.679259 
L 226.294776 149.801026 
L 221.212512 150.309835 
L 215.668224 151.449221 
L 210.766752 153.741038 
L 212.206392 157.209206 
L 217.3824 159.15312 
L 222.618672 160.212053 
L 227.399616 160.781746 
L 231.67836 161.040499 
L 235.474992 161.086162 
L 238.829688 160.973093 
L 241.769232 160.736083 
L 244.313712 160.399051 
L 246.483216 159.981566 
L 248.297832 159.496675 
L 249.75756 158.953075 
L 250.869096 158.359464 
L 251.63244 157.726714 
L 252.047592 157.056998 
L 252.10116 156.359016 
L 251.786448 155.63929 
L 251.076672 154.902168 
L 249.965136 154.156349 
L 248.398272 153.408355 
L 246.349296 152.673408 
L 243.751248 151.962379 
L 240.530472 151.299187 
L 236.559744 150.720797 
L 231.671664 150.294614 
L 225.61848 150.16415 
L 218.112264 150.690355 
L 210.358296 152.943034 
L 210.170808 155.94588 
L 213.103656 157.983293 
L 216.752976 159.327072 
L 220.475952 160.203355 
L 224.058312 160.736083 
L 227.406312 161.005709 
L 230.486472 161.060069 
L 233.258616 160.931779 
L 235.716048 160.649107 
L 237.831984 160.225099 
L 239.593032 159.674976 
L 240.965712 159.00961 
L 241.916544 158.239872 
L 242.412048 157.370112 
L 242.398656 156.411202 
L 241.796016 155.369664 
L 240.496992 154.256371 
L 238.360968 153.090893 
L 235.140192 151.910194 
L 230.452992 150.80125 
L 223.636464 150.009768 
L 214.128144 150.409858 
L 208.316016 153.095242 
L 207.545976 155.489256 
L 208.617336 157.344019 
L 210.465432 158.781298 
L 212.675112 159.89459 
L 215.058888 160.744781 
L 217.51632 161.377531 
L 219.973752 161.818934 
L 222.391008 162.08856 
L 224.727912 162.203803 
L 226.971072 162.173362 
L 229.087008 162.005933 
L 231.055632 161.70804 
L 232.843464 161.281858 
L 234.430416 160.72956 
L 235.776312 160.053322 
L 236.847672 159.248794 
L 237.590928 158.31815 
L 237.925728 157.252694 
L 237.765024 156.048077 
L 236.941416 154.702123 
L 235.22724 153.210485 
L 232.187256 151.592731 
L 226.944288 149.959757 
L 217.804248 148.950835 
L 208.530288 150.594682 
L 204.305112 152.651664 
L 202.323096 154.482509 
L 201.506184 156.069821 
L 201.392352 157.446216 
L 201.740544 158.642136 
L 202.423536 159.681499 
L 203.347584 160.583875 
L 204.465816 161.357962 
L 205.724664 162.016805 
L 207.10404 162.566928 
L 210.11724 163.367107 
L 213.3648 163.786766 
L 216.732888 163.841126 
L 220.121064 163.53671 
L 223.44228 162.860472 
L 225.042624 162.375581 
L 226.576008 161.788493 
L 228.02904 161.092685 
L 229.36824 160.277285 
L 230.560128 159.33577 
L 231.551136 158.250744 
L 232.274304 157.006987 
L 232.609104 155.580581 
L 232.354656 153.932386 
L 231.135984 152.021088 
L 228.049128 149.816246 
L 220.650048 147.626626 
L 209.762352 147.991925 
L 203.026176 149.283518 
L 198.426024 150.635995 
L 195.031152 151.927589 
L 192.413016 153.13873 
L 190.357344 154.271592 
L 188.730216 155.32835 
L 187.437888 156.317702 
L 186.420096 157.243997 
L 185.060808 158.924808 
L 184.659048 159.683674 
L 184.411296 160.394702 
L 184.30416 161.057894 
L 184.317552 161.677598 
L 184.451472 162.25164 
L 185.027328 163.275782 
L 185.971464 164.139019 
L 187.237008 164.847874 
L 188.79048 165.40452 
L 190.5984 165.813307 
L 192.647376 166.067712 
L 194.910624 166.172083 
L 197.374752 166.117723 
L 200.026368 165.898109 
L 202.85208 165.504542 
L 205.8318 164.926152 
L 208.958832 164.141194 
L 212.206392 163.125749 
L 215.554392 161.845027 
L 218.935872 160.249018 
L 220.623264 159.307502 
L 222.277176 158.252918 
L 223.87752 157.065696 
L 225.377424 155.719742 
L 226.68984 154.17157 
L 227.647368 152.35812 
L 227.888424 150.177197 
L 226.2546 147.457022 
L 218.406888 144.547675 
L 209.909664 143.960587 
L 203.300712 144.134539 
L 198.057744 144.58464 
L 193.799088 145.158682 
L 190.290384 145.787083 
L 187.391016 146.441578 
L 183.025224 147.759264 
L 181.438272 148.405061 
L 180.199512 149.033462 
L 179.268768 149.644469 
L 178.625952 150.231557 
L 178.250976 150.792552 
L 178.130448 151.327454 
L 178.250976 151.831915 
L 178.605864 152.305934 
L 179.188416 152.742989 
L 179.991936 153.145253 
L 181.009728 153.508378 
L 183.688128 154.101989 
L 187.21692 154.493381 
L 191.629584 154.64124 
L 196.966296 154.47816 
L 203.307408 153.891072 
L 206.883072 153.377914 
L 210.746664 152.662536 
L 214.884792 151.67101 
L 219.210408 150.259824 
L 223.30836 148.146307 
L 224.721216 144.771638 
L 217.91808 142.1928 
L 210.994416 141.149088 
L 205.075152 140.733778 
L 200.019672 140.633755 
L 195.667272 140.716382 
L 188.602992 141.199099 
L 183.293064 141.923174 
L 179.389296 142.775539 
L 176.697504 143.697485 
L 175.76676 144.171504 
L 175.09716 144.649872 
L 174.688704 145.12824 
L 174.528 145.604434 
L 174.615048 146.074104 
L 174.949848 146.537251 
L 175.525704 146.987352 
L 176.349312 147.422232 
L 177.427368 147.839717 
L 180.373608 148.605106 
L 184.431384 149.237856 
L 189.741312 149.681434 
L 196.52436 149.824944 
L 200.582136 149.722747 
L 205.168896 149.44225 
L 210.364992 148.889952 
L 216.237384 147.874507 
L 222.451272 145.915373 
L 224.600688 142.125394 
L 221.480352 139.546555 
L 217.603368 137.787466 
L 213.73308 136.495872 
L 210.036888 135.504346 
L 206.541576 134.730259 
L 200.166984 133.63871 
L 194.569128 132.984216 
L 189.687744 132.647184 
L 185.455872 132.562382 
L 181.86012 132.6798 
L 178.867008 132.973344 
L 176.46984 133.42127 
L 174.675312 134.00401 
L 173.49012 134.71069 
L 173.135232 135.108605 
L 172.947744 135.532613 
L 172.927656 135.982714 
L 173.081664 136.458907 
L 173.42316 136.961194 
L 173.95884 137.485224 
L 174.6954 138.033173 
L 176.858208 139.189954 
L 180.0522 140.425013 
L 184.531824 141.712258 
L 187.370928 142.364578 
L 190.718928 143.0082 
L 194.68296 143.627904 
L 199.457208 144.182376 
L 205.336296 144.593338 
L 212.8626 144.621605 
L 222.457968 143.386546 
L 226.134072 139.98361 
L 225.638568 137.369981 
L 224.071704 135.319522 
L 222.13656 133.621315 
L 220.0608 132.17099 
L 217.938168 130.90549 
L 213.712992 128.783275 
L 209.601648 127.069848 
L 205.6644 125.660837 
L 201.921336 124.497533 
L 196.664976 123.125486 
L 191.850552 122.127437 
L 187.478064 121.444675 
L 183.540816 121.038062 
L 180.038808 120.881506 
L 176.992128 120.95761 
L 174.400776 121.248979 
L 172.298232 121.749091 
L 171.18 122.197018 
L 170.296128 122.734094 
L 169.666704 123.362496 
L 169.311816 124.080048 
L 169.244856 124.891099 
L 169.492608 125.79565 
L 170.088552 126.795874 
L 171.07956 127.898294 
L 172.5192 129.109435 
L 174.474432 130.43147 
L 177.065784 131.877446 
L 180.447264 133.453886 
L 184.87332 135.176011 
L 187.61868 136.095782 
L 190.83276 137.050344 
L 194.656176 138.037522 
L 199.363464 139.03992 
L 205.416648 139.990133 
L 213.873696 140.609837 
L 225.538128 139.244314 
L 231.24312 137.091658 
L 234.637992 135.121651 
L 236.941416 133.342992 
L 238.60872 131.718715 
L 239.854176 130.222728 
L 240.805008 128.828938 
L 241.534872 127.524298 
L 242.4924 125.132458 
L 242.981208 122.979802 
L 243.12852 121.022842 
L 243.021384 119.23331 
L 242.713368 117.589464 
L 242.237952 116.071733 
L 241.628616 114.671419 
L 240.510384 112.766645 
L 239.197968 111.072787 
L 237.718152 109.572451 
L 236.111112 108.250416 
L 234.39024 107.09581 
L 231.966288 105.797693 
L 229.415112 104.764853 
L 226.763496 103.986418 
L 224.04492 103.45369 
L 221.279472 103.16232 
L 218.48724 103.116658 
L 215.695008 103.314528 
L 212.909472 103.762454 
L 210.164112 104.473483 
L 208.155312 105.184512 
L 206.193384 106.058621 
L 204.305112 107.106682 
L 202.503888 108.339566 
L 200.823192 109.779019 
L 199.309896 111.442435 
L 198.405936 112.692715 
L 197.622504 114.06911 
L 196.986384 115.584667 
L 196.531056 117.265478 
L 196.330176 119.133288 
L 196.470792 121.231584 
L 196.718544 122.381842 
L 197.127 123.616901 
L 197.736336 124.945459 
L 198.626904 126.389261 
L 199.912536 127.974398 
L 201.827592 129.735662 
L 204.854184 131.725238 
L 210.371688 133.94965 
L 222.491448 135.219499 
L 231.296688 134.849851 
L 238.233744 134.197531 
L 249.416064 132.731986 
L 258.669936 131.249045 
L 270.602208 129.089866 
L 284.349096 126.345773 
L 299.435184 123.099394 
L 318.12372 118.815826 
L 339.510744 113.645102 
L 363.040488 107.700293 
L 386.496576 101.561962 
L 416.983464 93.331858 
L 433 88.912494 
L 433 88.912494 
" clip-path="url(#pd97bd959e0)" style="fill: none; stroke: #feffb3; stroke-width: 1.5; stroke-linecap: square"/>
   </g>
   <g id="patch_3">
    <path d="M 54 252 
L 54 34.56 
" style="fill: none; stroke: #ffffff; stroke-width: 0.8; stroke-linejoin: miter; stroke-linecap: square"/>
   </g>
   <g id="patch_4">
    <path d="M 388.8 252 
L 388.8 34.56 
" style="fill: none; stroke: #ffffff; stroke-width: 0.8; stroke-linejoin: miter; stroke-linecap: square"/>
   </g>
   <g id="patch_5">
    <path d="M 54 252 
L 388.8 252 
" style="fill: none; stroke: #ffffff; stroke-width: 0.8; stroke-linejoin: miter; stroke-linecap: square"/>
   </g>
   <g id="patch_6">
    <path d="M 54 34.56 
L 388.8 34.56 
" style="fill: none; stroke: #ffffff; stroke-width: 0.8; stroke-linejoin: miter; stroke-linecap: square"/>
   </g>
  </g>
 </g>
 <defs>
  <clipPath id="pd97bd959e0">
   <rect x="54" y="34.56" width="334.8" height="217.44"/>
  </clipPath>
 </defs>
</svg>
